<svg xmlns="http://www.w3.org/2000/svg" xmlns:xlink="http://www.w3.org/1999/xlink" id="Layer_1" x="0px" y="0px" width="350px" height="220px" viewBox="0 0 350 220" style="enable-background:new 0 0 350 220;" xml:space="preserve">
<style type="text/css">
	.st0{fill:#BBDDFC;}
	.st1{fill:#E3F2FD;}
	.st2{fill:#2C324F;}
	.st3{fill:#FF7DAC;}
	.st4{opacity:0.1;fill:#3D4654;}
	.st5{fill:#6665DD;}
	.st6{fill:#8686F2;}
	.st7{opacity:0.2;}
	.st8{fill:#3D4654;}
	.st9{fill:#495362;}
	.st10{fill:#353E4A;}
	.st11{clip-path:url(#XMLID_2_);}
	.st12{fill:#FC4949;}
</style>
<g>
	<g>
		<path class="st0" d="M126.4,167.9l2.5-48.1c14.9,9.6,36.5,26.7,46.5,44.2L126.4,167.9z"></path>
		<path class="st0" d="M130,42.2c6.2-9.9,12.7-11,15.7-3.4c3.1,7.6-7.8,21.9-7.8,21.9L130,42.2z"></path>
		<path class="st1" d="M81.8,21.7c0,0,17.4-2.7,42.8,3.4c9,2.6,10.9,7.2,11.5,12c0.6,4.7,3.1,29.5,3.1,29.5s19.3,6.6,20.1,11.9    c0.7,5.3-1.9,17.2-23.7,30c-4.4,12-2.2,73.2-2.2,73.2H23.3c0,0,10.7-82.4,44.1-141L81.8,21.7z"></path>
		<path class="st1" d="M87,28.6C75.3,2.2,62.4,12.1,60.4,25.5c-2,13.6,8.4,26.3,8.4,26.3L87,28.6z"></path>
		<ellipse class="st2" cx="133.1" cy="56.9" rx="3" ry="3.8"></ellipse>
		<ellipse class="st2" cx="113" cy="56.9" rx="3" ry="3.8"></ellipse>
		<path class="st2" d="M149.5,77.6c-2.7-3.8-17.8-4.3-20.8,0S133.2,91,139.1,91S152.9,82.4,149.5,77.6z"></path>
		<path class="st1" d="M87.6,22c10-14.4,23.1-16.1,24.8-15.4c1.7,0.7-8.4,9.5-8.4,9.5s11.2-7.3,24.9-3.2c6.9,2.2-9.4,5.1-9.4,5.1    s13-0.5,21.8,5c8.8,5.5-17.2,2.5-17.2,2.5L87.6,22z"></path>
		<path class="st2" d="M97.5,82.3c2.6-2.9,6.1-3.7,9.5,0.9c2.9,4,9.3,8.8,11.4,9.9c2.1,1.1,3.3,2.8,1,5.7    c-2.8,3.5-11.3,5.6-19.2,1.9C92.9,97.4,94,86.2,97.5,82.3z"></path>
		<path class="st3" d="M94.8,91.1c0,3.9,1.5,7.9,5.3,9.6c3.4,1.5,6.8,2,9.9,1.8C108.9,98.2,102.7,91.9,94.8,91.1z"></path>
		<path class="st1" d="M60.2,155.2c19.1-11.7,44.2-15.3,55.2-7.3c10.5,8.7-20.7,61.3-83.4,63.8c-12.2,0.5-20.9-6.7-21.9-25.7    s11-60.9,31.9-75.2S60.2,155.2,60.2,155.2z"></path>
		<g>
			<path class="st0" d="M102.2,181.6c14.6-15.4,17.4-31.8,11.9-36.4c-11.9-8.6-31.3-5.2-52,6.3c0,0,0.1-4.7-1.1-14     c0.2,7.5-0.8,17.6-0.8,17.6c19.1-11.7,42.1-16.6,53-8.6c5.2,4.3,2.3,20.6-11.6,35H102.2z"></path>
		</g>
		<path class="st2" d="M106.1,143c-0.3-0.3-0.9-0.4-1.3-0.1c-2,1.1-5.1,3.8-5.3,3.9c-0.5,0.4-0.5,1.1-0.1,1.6    c0.4,0.5,1.1,0.5,1.6,0.1c0,0,3.2-2.7,5-3.7c0.5-0.3,0.7-1,0.4-1.5C106.3,143.2,106.2,143.1,106.1,143z"></path>
		<path class="st2" d="M113.8,147.2c0,0-0.1-0.1-0.1-0.1c-0.5-0.4-1.2-0.2-1.5,0.3c-2.3,3.2-5.6,6.2-5.7,6.2    c-0.5,0.4-0.5,1.1-0.1,1.6c0.4,0.5,1.1,0.5,1.6,0.1c0.1-0.1,3.6-3.1,6-6.6C114.3,148.2,114.2,147.6,113.8,147.2z"></path>
		<path class="st2" d="M115.7,155.6c-0.1-0.1-0.2-0.2-0.3-0.2c-0.6-0.2-1.2,0-1.4,0.6c-1,2.6-3.8,5.9-3.8,5.9    c-0.4,0.5-0.3,1.2,0.1,1.6c0.5,0.4,1.2,0.3,1.6-0.1c0.1-0.1,3-3.6,4.1-6.5C116.2,156.4,116,155.9,115.7,155.6z"></path>
		<path class="st0" d="M107.2,181.6c0,0,4.6-8.7,25.7-18.5l10.7,8.7L107.2,181.6z"></path>
		<g>
			<path class="st1" d="M170.5,156.7c-8.3-0.3-22.3,0.7-37.2,7.9c-43.8,21.4-30.9,31.1-19.9,36.4c7.9,3.7,59.5,4.5,65.8-11.2     C183.4,179.5,178.8,167.8,170.5,156.7z"></path>
			<g>
				<path class="st2" d="M125.9,198c-0.1,0.5-0.5,0.9-1,1l0,0c-0.1,0-3.2,0.5-4.6,3.9c-0.2,0.6-0.9,0.9-1.5,0.7      c-0.6-0.2-0.9-0.9-0.7-1.5c1.8-4.6,6.2-5.3,6.4-5.3c0.6-0.1,1.2,0.4,1.3,1C126,197.8,126,197.9,125.9,198z"></path>
				<path class="st2" d="M115.3,194c-0.1,0.5-0.4,0.8-0.8,1c-0.1,0-2.4,0.8-3.9,4.2c-0.3,0.6-0.9,0.9-1.5,0.6      c-0.6-0.3-0.9-0.9-0.6-1.5c1.9-4.5,5.3-5.5,5.4-5.5c0.6-0.2,1.3,0.2,1.4,0.8C115.3,193.7,115.3,193.8,115.3,194z"></path>
				<path class="st2" d="M109.3,187.9c-0.1,0.4-0.4,0.7-0.8,0.8c-3.1,0.8-3.3,3.4-3.3,3.5c0,0.6-0.6,1.1-1.2,1.1      c-0.6,0-1.1-0.6-1.1-1.2c0.1-1.5,1.3-4.7,5.1-5.7c0.6-0.2,1.3,0.2,1.4,0.9C109.4,187.5,109.4,187.7,109.3,187.9z"></path>
			</g>
		</g>
	</g>
	<g>
		<path class="st4" d="M265.4,191.7c0,0,0.8,3.5-0.5,5.8c-1.3,2.2-25,9.5-25,9.5l-3.2,3.1c0,0,23,0.1,23.9,0.9s2.8,3.4,11.8,2.4    c9-0.9,14.5-3.4,18.9-3.3c4.4,0.1,42.5-1.2,42.5-1.2l-4.3-1.3c0,0-33.2-2.1-34.1-3.2c-0.9-1.1-4.8-6.9-9.4-6.9s-10,0.2-11.7-0.7    c-1.7-0.9-6-5-6-5H265.4z"></path>
		<g>
			<g>
				<g>
					<path class="st5" d="M271.9,189.2c-0.1,2.2-1.5,4-4.7,4c-3.1,0-4.5-2-4.4-4.4c0.1-2.4,1.6-3.5,4.7-3.3       C270.6,185.7,272,187,271.9,189.2z"></path>
					<path class="st6" d="M267.5,185.5c-3.1-0.2-4.6,0.8-4.7,3.2c2.3,3.4,7.1,2,9,0.7l0-0.2C272,187,270.6,185.7,267.5,185.5z"></path>
					<path class="st2" d="M267.3,190.1c-2.6-0.1-4-0.9-4.4-1.9c-0.1,0.2-0.2,0.4-0.2,0.7c-0.1,1.4,1.4,2.6,4.6,2.6       c3.2,0.1,4.7-0.9,4.8-2.2c0-0.2,0-0.5-0.1-0.7C271.4,189.6,269.9,190.2,267.3,190.1z"></path>
				</g>
				<g>
					<path class="st5" d="M272.3,182.8c-0.2,2.2-1.8,3.9-4.9,3.7c-3.1-0.2-4.4-2.2-4.2-4.7c0.3-2.4,1.9-3.5,4.9-3       C271.3,179.3,272.6,180.7,272.3,182.8z"></path>
					<path class="st6" d="M268.3,178.9c-3-0.4-4.6,0.5-4.9,2.9c2.1,3.6,6.9,2.4,9,1.3l0-0.2C272.6,180.7,271.3,179.3,268.3,178.9z"></path>
					<path class="st2" d="M267.7,183.5c-2.6-0.2-4-1.1-4.3-2.2c-0.1,0.2-0.2,0.4-0.3,0.7c-0.1,1.4,1.3,2.7,4.5,2.9       c3.2,0.2,4.8-0.7,4.9-1.9c0-0.2,0-0.5-0.1-0.7C271.8,183.2,270.3,183.8,267.7,183.5z"></path>
				</g>
				<g>
					<path class="st5" d="M273.2,176.4c-0.4,2.2-2.1,3.8-5.1,3.4c-3.1-0.4-4.2-2.5-3.8-5c0.5-2.4,2.1-3.3,5.2-2.6       C272.5,172.9,273.7,174.3,273.2,176.4z"></path>
					<path class="st6" d="M269.5,172.2c-3-0.7-4.6,0.2-5.1,2.5c1.9,3.7,6.8,2.9,8.9,1.9l0-0.2C273.7,174.3,272.5,172.9,269.5,172.2z       "></path>
					<path class="st2" d="M268.6,176.8c-2.5-0.4-3.9-1.4-4.2-2.5c-0.2,0.2-0.3,0.4-0.3,0.7c-0.2,1.4,1.1,2.8,4.2,3.2       c3.2,0.5,4.8-0.3,5-1.6c0-0.2,0-0.5,0-0.7C272.7,176.7,271.2,177.2,268.6,176.8z"></path>
				</g>
				<g>
					<path class="st5" d="M274.6,170.3c-0.3,1.1-0.9,2-1.8,2.5c-0.9,0.6-2.1,0.8-3.6,0.5c-1.5-0.3-2.5-1-3.1-2       c-0.5-0.9-0.6-2.1-0.3-3.3c0.6-2.4,2.4-3.1,5.3-2.2C274.1,166.7,275.2,168.2,274.6,170.3z"></path>
					<path class="st6" d="M271.2,165.8c-2.9-0.9-4.7-0.2-5.3,2.1c1.6,3.9,6.5,3.4,8.7,2.6l0.1-0.2       C275.2,168.2,274.1,166.7,271.2,165.8z"></path>
					<path class="st2" d="M269.9,170.3c-2.5-0.6-3.8-1.7-4-2.8c-0.2,0.2-0.3,0.4-0.3,0.7c-0.3,1.4,0.8,2.8,4,3.5s4.8,0,5.1-1.2       c0.1-0.2,0.1-0.5,0-0.7C274,170.6,272.5,170.9,269.9,170.3z"></path>
				</g>
				<g>
					<path class="st5" d="M276.5,164.1c-0.4,1-1,1.9-2,2.3c-0.9,0.5-2.1,0.6-3.6,0.2c-1.5-0.4-2.4-1.2-2.9-2.2c-0.5-1-0.4-2.2,0-3.3       c0.8-2.3,2.7-2.9,5.5-1.8C276.4,160.5,277.2,162,276.5,164.1z"></path>
					<path class="st6" d="M273.5,159.3c-2.8-1.2-4.6-0.6-5.5,1.7c1.2,4,6.2,3.9,8.4,3.3l0.1-0.2C277.2,162,276.4,160.5,273.5,159.3z       "></path>
					<path class="st2" d="M271.9,163.7c-2.5-0.8-3.6-2-3.7-3.1c-0.2,0.2-0.3,0.4-0.4,0.6c-0.5,1.4,0.6,2.9,3.6,3.9       c3.1,1,4.8,0.5,5.2-0.7c0.1-0.2,0.1-0.5,0.1-0.7C275.9,164.3,274.3,164.5,271.9,163.7z"></path>
				</g>
				<g>
					<path class="st5" d="M278.7,158.4c-0.9,1.9-2.8,3-5.6,2c-2.8-1.1-3.4-3.4-2.4-5.6c1-2.2,2.8-2.6,5.5-1.3       C278.8,154.8,279.5,156.4,278.7,158.4z"></path>
					<path class="st6" d="M276.1,153.5c-2.6-1.3-4.5-0.9-5.4,1.2c0.8,3.9,5.7,4.3,7.9,3.9l0.1-0.2       C279.5,156.4,278.8,154.8,276.1,153.5z"></path>
					<path class="st2" d="M274.2,157.6c-2.3-1-3.3-2.2-3.3-3.3c-0.2,0.1-0.3,0.3-0.4,0.6c-0.6,1.3,0.3,2.8,3.2,4       c2.9,1.2,4.6,0.8,5.1-0.3c0.1-0.2,0.1-0.4,0.1-0.6C278.1,158.5,276.5,158.6,274.2,157.6z"></path>
				</g>
				<g>
					<path class="st5" d="M281.3,153c-1,1.8-3,2.8-5.6,1.5c-2.6-1.3-3.1-3.6-1.9-5.6c1.2-2,2.9-2.4,5.4-0.8       C281.6,149.5,282.3,151.1,281.3,153z"></path>
					<path class="st6" d="M279.1,148c-2.5-1.5-4.2-1.2-5.4,0.8c0.2,1.9,1.6,3.1,3.1,3.7c1.5,0.6,3.2,0.8,4.3,0.7l0.1-0.2       C282.3,151.1,281.6,149.5,279.1,148z"></path>
					<path class="st2" d="M277,151.8c-2.2-1.2-3.1-2.4-3-3.5c-0.2,0.1-0.4,0.3-0.5,0.5c-0.7,1.2,0.1,2.8,2.8,4.2       c2.7,1.4,4.4,1.1,5,0.1c0.1-0.2,0.2-0.4,0.2-0.6C280.7,153.1,279.1,153,277,151.8z"></path>
				</g>
				<g>
					<path class="st5" d="M284.1,147.9c-0.5,0.9-1.3,1.5-2.3,1.7c-0.9,0.2-2,0.1-3.3-0.6c-1.2-0.7-1.9-1.6-2.1-2.6       c-0.2-1,0.1-2,0.7-3c1.2-1.9,3-2,5.3-0.4C284.8,144.6,285.2,146.2,284.1,147.9z"></path>
					<path class="st6" d="M282.4,142.9c-2.3-1.6-4.1-1.5-5.3,0.4c0.3,3.8,4.7,4.8,6.8,4.8l0.1-0.2       C285.2,146.2,284.8,144.6,282.4,142.9z"></path>
					<path class="st2" d="M280.1,146.5c-2-1.3-2.8-2.6-2.7-3.6c-0.2,0.1-0.4,0.3-0.5,0.5c-0.7,1.1-0.1,2.7,2.4,4.2       c2.5,1.5,4.2,1.4,4.8,0.4c0.1-0.2,0.2-0.4,0.2-0.6C283.6,148,282.1,147.8,280.1,146.5z"></path>
				</g>
				<g>
					<path class="st5" d="M287.5,142.9c-1.2,1.6-3.2,2.2-5.5,0.7c-2.3-1.5-2.4-3.8-1.1-5.5c1.3-1.7,3-1.8,5.2-0.1       C288.3,139.7,288.7,141.3,287.5,142.9z"></path>
					<path class="st6" d="M286.1,137.9c-2.1-1.7-3.8-1.7-5.1,0c0,1.8,1.1,3.1,2.4,3.9c1.3,0.8,2.9,1.2,4,1.2l0.1-0.2       C288.7,141.3,288.3,139.7,286.1,137.9z"></path>
					<path class="st2" d="M283.6,141.3c-1.9-1.4-2.6-2.7-2.3-3.7c-0.2,0.1-0.4,0.2-0.5,0.4c-0.8,1-0.2,2.6,2.1,4.3       c2.4,1.7,4,1.6,4.7,0.7c0.1-0.2,0.2-0.4,0.2-0.6C286.9,142.9,285.5,142.6,283.6,141.3z"></path>
				</g>
			</g>
			<g class="st7">
				<g>
					<path class="st5" d="M271.9,189.2c-0.1,2.2-1.5,4-4.7,4c-3.1,0-4.5-2-4.4-4.4c0.1-2.4,1.6-3.5,4.7-3.3       C270.6,185.7,272,187,271.9,189.2z"></path>
					<path class="st6" d="M267.5,185.5c-3.1-0.2-4.6,0.8-4.7,3.2c2.3,3.4,7.1,2,9,0.7l0-0.2C272,187,270.6,185.7,267.5,185.5z"></path>
					<path class="st2" d="M267.3,190.1c-2.6-0.1-4-0.9-4.4-1.9c-0.1,0.2-0.2,0.4-0.2,0.7c-0.1,1.4,1.4,2.6,4.6,2.6       c3.2,0.1,4.7-0.9,4.8-2.2c0-0.2,0-0.5-0.1-0.7C271.4,189.6,269.9,190.2,267.3,190.1z"></path>
				</g>
				<g>
					<path class="st5" d="M272.3,182.8c-0.2,2.2-1.8,3.9-4.9,3.7c-3.1-0.2-4.4-2.2-4.2-4.7c0.3-2.4,1.9-3.5,4.9-3       C271.3,179.3,272.6,180.7,272.3,182.8z"></path>
					<path class="st6" d="M268.3,178.9c-3-0.4-4.6,0.5-4.9,2.9c2.1,3.6,6.9,2.4,9,1.3l0-0.2C272.6,180.7,271.3,179.3,268.3,178.9z"></path>
					<path class="st2" d="M267.7,183.5c-2.6-0.2-4-1.1-4.3-2.2c-0.1,0.2-0.2,0.4-0.3,0.7c-0.1,1.4,1.3,2.7,4.5,2.9       c3.2,0.2,4.8-0.7,4.9-1.9c0-0.2,0-0.5-0.1-0.7C271.8,183.2,270.3,183.8,267.7,183.5z"></path>
				</g>
				<g>
					<path class="st5" d="M273.2,176.4c-0.4,2.2-2.1,3.8-5.1,3.4c-3.1-0.4-4.2-2.5-3.8-5c0.5-2.4,2.1-3.3,5.2-2.6       C272.5,172.9,273.7,174.3,273.2,176.4z"></path>
					<path class="st6" d="M269.5,172.2c-3-0.7-4.6,0.2-5.1,2.5c1.9,3.7,6.8,2.9,8.9,1.9l0-0.2C273.7,174.3,272.5,172.9,269.5,172.2z       "></path>
					<path class="st2" d="M268.6,176.8c-2.5-0.4-3.9-1.4-4.2-2.5c-0.2,0.2-0.3,0.4-0.3,0.7c-0.2,1.4,1.1,2.8,4.2,3.2       c3.2,0.5,4.8-0.3,5-1.6c0-0.2,0-0.5,0-0.7C272.7,176.7,271.2,177.2,268.6,176.8z"></path>
				</g>
				<g>
					<path class="st5" d="M274.6,170.3c-0.3,1.1-0.9,2-1.8,2.5c-0.9,0.6-2.1,0.8-3.6,0.5c-1.5-0.3-2.5-1-3.1-2       c-0.5-0.9-0.6-2.1-0.3-3.3c0.6-2.4,2.4-3.1,5.3-2.2C274.1,166.7,275.2,168.2,274.6,170.3z"></path>
					<path class="st6" d="M271.2,165.8c-2.9-0.9-4.7-0.2-5.3,2.1c1.6,3.9,6.5,3.4,8.7,2.6l0.1-0.2       C275.2,168.2,274.1,166.7,271.2,165.8z"></path>
					<path class="st2" d="M269.9,170.3c-2.5-0.6-3.8-1.7-4-2.8c-0.2,0.2-0.3,0.4-0.3,0.7c-0.3,1.4,0.8,2.8,4,3.5s4.8,0,5.1-1.2       c0.1-0.2,0.1-0.5,0-0.7C274,170.6,272.5,170.9,269.9,170.3z"></path>
				</g>
				<g>
					<path class="st5" d="M276.5,164.1c-0.4,1-1,1.9-2,2.3c-0.9,0.5-2.1,0.6-3.6,0.2c-1.5-0.4-2.4-1.2-2.9-2.2c-0.5-1-0.4-2.2,0-3.3       c0.8-2.3,2.7-2.9,5.5-1.8C276.4,160.5,277.2,162,276.5,164.1z"></path>
					<path class="st6" d="M273.5,159.3c-2.8-1.2-4.6-0.6-5.5,1.7c1.2,4,6.2,3.9,8.4,3.3l0.1-0.2C277.2,162,276.4,160.5,273.5,159.3z       "></path>
					<path class="st2" d="M271.9,163.7c-2.5-0.8-3.6-2-3.7-3.1c-0.2,0.2-0.3,0.4-0.4,0.6c-0.5,1.4,0.6,2.9,3.6,3.9       c3.1,1,4.8,0.5,5.2-0.7c0.1-0.2,0.1-0.5,0.1-0.7C275.9,164.3,274.3,164.5,271.9,163.7z"></path>
				</g>
				<g>
					<path class="st5" d="M278.7,158.4c-0.9,1.9-2.8,3-5.6,2c-2.8-1.1-3.4-3.4-2.4-5.6c1-2.2,2.8-2.6,5.5-1.3       C278.8,154.8,279.5,156.4,278.7,158.4z"></path>
					<path class="st6" d="M276.1,153.5c-2.6-1.3-4.5-0.9-5.4,1.2c0.8,3.9,5.7,4.3,7.9,3.9l0.1-0.2       C279.5,156.4,278.8,154.8,276.1,153.5z"></path>
					<path class="st2" d="M274.2,157.6c-2.3-1-3.3-2.2-3.3-3.3c-0.2,0.1-0.3,0.3-0.4,0.6c-0.6,1.3,0.3,2.8,3.2,4       c2.9,1.2,4.6,0.8,5.1-0.3c0.1-0.2,0.1-0.4,0.1-0.6C278.1,158.5,276.5,158.6,274.2,157.6z"></path>
				</g>
				<g>
					<path class="st5" d="M281.3,153c-1,1.8-3,2.8-5.6,1.5c-2.6-1.3-3.1-3.6-1.9-5.6c1.2-2,2.9-2.4,5.4-0.8       C281.6,149.5,282.3,151.1,281.3,153z"></path>
					<path class="st6" d="M279.1,148c-2.5-1.5-4.2-1.2-5.4,0.8c0.2,1.9,1.6,3.1,3.1,3.7c1.5,0.6,3.2,0.8,4.3,0.7l0.1-0.2       C282.3,151.1,281.6,149.5,279.1,148z"></path>
					<path class="st2" d="M277,151.8c-2.2-1.2-3.1-2.4-3-3.5c-0.2,0.1-0.4,0.3-0.5,0.5c-0.7,1.2,0.1,2.8,2.8,4.2       c2.7,1.4,4.4,1.1,5,0.1c0.1-0.2,0.2-0.4,0.2-0.6C280.7,153.1,279.1,153,277,151.8z"></path>
				</g>
				<g>
					<path class="st5" d="M284.1,147.9c-0.5,0.9-1.3,1.5-2.3,1.7c-0.9,0.2-2,0.1-3.3-0.6c-1.2-0.7-1.9-1.6-2.1-2.6       c-0.2-1,0.1-2,0.7-3c1.2-1.9,3-2,5.3-0.4C284.8,144.6,285.2,146.2,284.1,147.9z"></path>
					<path class="st6" d="M282.4,142.9c-2.3-1.6-4.1-1.5-5.3,0.4c0.3,3.8,4.7,4.8,6.8,4.8l0.1-0.2       C285.2,146.2,284.8,144.6,282.4,142.9z"></path>
					<path class="st2" d="M280.1,146.5c-2-1.3-2.8-2.6-2.7-3.6c-0.2,0.1-0.4,0.3-0.5,0.5c-0.7,1.1-0.1,2.7,2.4,4.2       c2.5,1.5,4.2,1.4,4.8,0.4c0.1-0.2,0.2-0.4,0.2-0.6C283.6,148,282.1,147.8,280.1,146.5z"></path>
				</g>
				<g>
					<path class="st5" d="M287.5,142.9c-1.2,1.6-3.2,2.2-5.5,0.7c-2.3-1.5-2.4-3.8-1.1-5.5c1.3-1.7,3-1.8,5.2-0.1       C288.3,139.7,288.7,141.3,287.5,142.9z"></path>
					<path class="st6" d="M286.1,137.9c-2.1-1.7-3.8-1.7-5.1,0c0,1.8,1.1,3.1,2.4,3.9c1.3,0.8,2.9,1.2,4,1.2l0.1-0.2       C288.7,141.3,288.3,139.7,286.1,137.9z"></path>
					<path class="st2" d="M283.6,141.3c-1.9-1.4-2.6-2.7-2.3-3.7c-0.2,0.1-0.4,0.2-0.5,0.4c-0.8,1-0.2,2.6,2.1,4.3       c2.4,1.7,4,1.6,4.7,0.7c0.1-0.2,0.2-0.4,0.2-0.6C286.9,142.9,285.5,142.6,283.6,141.3z"></path>
				</g>
			</g>
			<g>
				<g>
					<path class="st5" d="M242.9,205.4c-0.1,0.7-0.4,1.3-0.8,1.9c-0.3,0.5-0.8,1-1.4,1.4c-1.2,0.8-2.9,1.3-5.2,1.3       c-2.3,0-4-0.8-5-2.3c-0.5-0.7-0.8-1.5-0.9-2.4c-0.1-0.9-0.1-1.8,0.1-2.8c0.2-0.9,0.5-1.7,1-2.3c0.5-0.6,1-1.1,1.7-1.3       c1.3-0.6,3.1-0.5,5.3,0.2c2.2,0.7,3.7,1.6,4.6,2.7c0.4,0.5,0.7,1.1,0.8,1.7C243.1,204,243.1,204.7,242.9,205.4z"></path>
					<path class="st6" d="M237.6,199c-2.2-0.7-3.9-0.8-5.2-0.2c-0.7,0.3-1.2,0.7-1.7,1.3c-0.4,0.6-0.8,1.4-1,2.3       c1.2,3,3.8,4,6.4,4.2c2.6,0.2,5.2-0.4,6.8-0.9l0.1-0.3c0.2-0.7,0.2-1.4,0.1-2c-0.1-0.6-0.4-1.2-0.8-1.7       C241.3,200.6,239.8,199.7,237.6,199z"></path>
					<path class="st2" d="M236,205.6c-1.9-0.3-3.4-0.9-4.4-1.5c-1-0.7-1.6-1.5-1.7-2.4c-0.2,0.3-0.4,0.6-0.5,1.1       c-0.2,1.1,0.1,2.2,1.2,3.1c1,0.9,2.7,1.5,5.1,1.8c2.4,0.3,4.2,0.1,5.4-0.3c1.2-0.4,1.9-1,2.1-1.8c0.1-0.3,0.1-0.6,0-0.9       c-0.5,0.5-1.3,0.9-2.5,1.1C239.4,205.9,237.9,205.9,236,205.6z"></path>
				</g>
				<g>
					<path class="st5" d="M245.4,197.1c-0.3,0.7-0.6,1.4-1.1,1.9c-0.5,0.5-1,1-1.7,1.3c-1.4,0.6-3.2,0.8-5.4,0.2       c-2.2-0.6-3.7-1.8-4.4-3.3c-0.4-0.7-0.5-1.5-0.5-2.4c0-0.8,0.2-1.7,0.5-2.6c1.3-3.4,4-4.2,8.3-2.3       C245.2,191.9,246.6,194.2,245.4,197.1z"></path>
					<path class="st6" d="M241,190c-4.2-1.8-6.9-1.1-8.2,2.2c0.9,3,3.2,4.4,5.7,5.1c2.5,0.6,5.2,0.5,6.9,0.1l0.1-0.3       C246.6,194.2,245.2,191.9,241,190z"></path>
					<path class="st2" d="M238.5,196.3c-3.7-1.3-5.4-3.1-5.5-4.7c-0.3,0.2-0.5,0.5-0.6,0.9c-0.7,2,0.9,4.3,5.4,5.8       c4.6,1.4,7.1,0.8,7.8-0.9c0.1-0.3,0.2-0.6,0.1-1C244.6,197.4,242.2,197.6,238.5,196.3z"></path>
				</g>
				<g>
					<path class="st5" d="M249.1,188.6c-1.4,2.9-4.4,4.4-8.6,2.7c-4.3-1.8-5.2-5.3-3.6-8.5c1.6-3.2,4.3-3.8,8.4-1.6       C249.4,183.3,250.5,185.7,249.1,188.6z"></path>
					<path class="st6" d="M245.3,181.1c-4-2.1-6.8-1.6-8.4,1.5c0.6,3,2.8,4.7,5.2,5.6c2.4,0.9,5.1,1,6.8,0.7l0.2-0.3       C250.5,185.7,249.4,183.3,245.3,181.1z"></path>
					<path class="st2" d="M242.3,187.2c-3.5-1.6-5.1-3.5-5-5.2c-0.3,0.2-0.5,0.5-0.7,0.9c-0.9,1.9,0.5,4.3,4.9,6.2       c4.4,1.9,7,1.5,7.8-0.2c0.2-0.3,0.2-0.6,0.2-1C248.2,188.8,245.8,188.8,242.3,187.2z"></path>
				</g>
				<g>
					<path class="st5" d="M253.4,180.5c-1.6,2.8-4.7,4.1-8.8,2c-4.1-2.1-4.8-5.7-3-8.8c1.8-3.1,4.6-3.5,8.5-1       C254,175.2,255,177.7,253.4,180.5z"></path>
					<path class="st6" d="M250,172.7c-3.9-2.4-6.7-2.1-8.4,0.9c0.4,3,2.5,4.9,4.8,5.9c2.4,1,5,1.3,6.8,1.2l0.2-0.3       C255,177.7,254,175.2,250,172.7z"></path>
					<path class="st2" d="M246.6,178.6c-3.4-1.9-4.8-3.9-4.7-5.5c-0.3,0.2-0.5,0.5-0.7,0.8c-1,1.8,0.2,4.3,4.4,6.5       c4.3,2.3,6.9,2,7.8,0.4c0.2-0.3,0.3-0.6,0.3-1C252.5,180.6,250,180.4,246.6,178.6z"></path>
				</g>
				<g>
					<path class="st5" d="M258.3,172.3c-1.8,2.7-5,3.8-9,1.5c-4-2.4-4.4-6-2.4-8.9c2-3,4.8-3.2,8.6-0.5       C259.3,167.1,260.1,169.6,258.3,172.3z"></path>
					<path class="st6" d="M255.5,164.4c-3.7-2.7-6.5-2.5-8.5,0.4c0.2,3,2.1,5,4.4,6.2c2.3,1.2,4.9,1.7,6.7,1.6l0.2-0.3       C260.1,169.6,259.3,167.1,255.5,164.4z"></path>
					<path class="st2" d="M251.8,170c-3.3-2.1-4.5-4.2-4.3-5.8c-0.3,0.2-0.6,0.4-0.8,0.7c-1.1,1.7-0.1,4.3,4,6.8       c4.1,2.5,6.8,2.4,7.8,0.9c0.2-0.3,0.3-0.6,0.3-0.9C257.4,172.4,255,172.1,251.8,170z"></path>
				</g>
				<g>
					<path class="st5" d="M263.4,164.8c-1.9,2.5-5,3.4-8.7,0.9c-3.7-2.5-3.9-6-1.8-8.8c2.1-2.8,4.8-2.8,8.3,0.1       C264.6,159.8,265.2,162.3,263.4,164.8z"></path>
					<path class="st6" d="M261.1,157c-3.4-2.8-6.1-2.8-8.2-0.2c0,3,1.7,5,3.9,6.3c2.1,1.3,4.7,1.9,6.4,2l0.2-0.3       C265.2,162.3,264.6,159.8,261.1,157z"></path>
					<path class="st2" d="M257.1,162.2c-3-2.2-4.1-4.3-3.8-5.9c-0.3,0.1-0.6,0.4-0.8,0.7c-1.2,1.6-0.4,4.2,3.4,6.9       c3.8,2.7,6.4,2.8,7.5,1.3c0.2-0.3,0.3-0.6,0.4-0.9C262.5,164.9,260.2,164.4,257.1,162.2z"></path>
				</g>
				<g>
					<path class="st5" d="M268.7,158c-2,2.2-5.1,2.9-8.6,0.2c-3.5-2.7-3.4-6.2-1.1-8.7c2.3-2.6,5-2.4,8.1,0.7       C270.3,153.3,270.7,155.8,268.7,158z"></path>
					<path class="st6" d="M267.2,150.2c-3.1-3.1-5.8-3.3-8.1-0.8c-0.2,2.9,1.3,5,3.3,6.4c2,1.4,4.4,2.2,6.1,2.4l0.2-0.2       C270.7,155.8,270.3,153.3,267.2,150.2z"></path>
					<path class="st2" d="M262.9,154.9c-2.8-2.4-3.7-4.5-3.3-6.1c-0.3,0.1-0.6,0.3-0.9,0.6c-1.3,1.5-0.7,4.1,2.8,7       c3.5,2.9,6.1,3.2,7.2,1.9c0.2-0.3,0.4-0.5,0.4-0.8C267.9,158,265.7,157.3,262.9,154.9z"></path>
				</g>
				<g>
					<path class="st5" d="M274.3,152c-2.1,1.9-5.1,2.3-8.2-0.7c-3.1-2.9-2.7-6.3-0.2-8.6c1.3-1.1,2.6-1.6,3.9-1.3       c1.3,0.3,2.6,1.2,3.9,2.9c1.3,1.7,2,3.2,2.1,4.4C275.8,150,275.4,151,274.3,152z"></path>
					<path class="st6" d="M273.7,144.3c-1.3-1.7-2.6-2.6-3.8-2.9c-1.3-0.3-2.6,0.2-3.9,1.2c-0.6,2.8,0.8,5,2.5,6.6       c1.8,1.6,4,2.6,5.6,3l0.2-0.2c1.1-0.9,1.5-2,1.4-3.2C275.7,147.5,275,146,273.7,144.3z"></path>
					<path class="st2" d="M269,148.4c-2.5-2.6-3.2-4.8-2.5-6.2c-0.3,0.1-0.6,0.3-0.9,0.5c-1.4,1.4-1.1,3.9,2.1,7       c3.1,3.1,5.5,3.6,6.7,2.5c0.2-0.2,0.4-0.4,0.5-0.7C273.5,151.8,271.5,151,269,148.4z"></path>
				</g>
				<g>
					<path class="st5" d="M280.6,147c-2.1,1.3-5,1.2-7.7-2c-1.3-1.6-1.8-3.2-1.5-4.7c0.1-0.7,0.5-1.4,0.9-2.1       c0.5-0.6,1.1-1.2,1.9-1.7c1.5-0.9,3-1.2,4.3-0.6c1.3,0.5,2.2,1.8,3,3.7c0.8,1.9,1,3.5,0.9,4.7       C282.2,145.5,281.6,146.3,280.6,147z"></path>
					<path class="st6" d="M281.4,139.6c-0.8-1.9-1.7-3.1-3-3.7c-1.3-0.6-2.7-0.3-4.2,0.5c-1.2,2.7-0.2,5,1.3,6.8       c1.5,1.8,3.5,3.1,4.8,3.8l0.2-0.1c1.1-0.6,1.6-1.5,1.8-2.7C282.5,143.1,282.2,141.6,281.4,139.6z"></path>
					<path class="st2" d="M276.1,142.6c-2-2.9-2.2-5.1-1.2-6.4c-0.4,0-0.7,0.2-1,0.4c-1.8,1.1-1.8,3.7,0.7,7.2       c2.6,3.5,4.8,4.3,6,3.6c0.2-0.2,0.4-0.4,0.5-0.6C279.9,146.7,278.1,145.5,276.1,142.6z"></path>
				</g>
			</g>
			<g>
				<g>
					<path class="st5" d="M339.6,202.7c0.4,1.7,0.1,3.5-0.8,4.8c-0.9,1.3-2.5,2.2-4.8,2.5c-2.3,0.3-4.1-0.2-5.4-1       c-1.3-0.8-2-2-2.3-3.5c-0.6-2.9,1-5,5.5-6.3C336.2,198,338.9,199.1,339.6,202.7z"></path>
					<path class="st6" d="M331.8,199.3c-4.4,1.2-6,3.3-5.5,6.1c2.3,1.6,4.9,1.8,7.5,1.2c1.3-0.3,2.4-0.9,3.5-1.5       c1-0.6,1.9-1.4,2.5-2l-0.1-0.4C338.9,199.1,336.2,198,331.8,199.3z"></path>
					<path class="st2" d="M333.4,205.7c-3.8,0.7-6.2,0.2-7.1-0.9c-0.1,0.3-0.1,0.6,0,0.9c0.2,0.8,0.9,1.5,2.1,1.9       c1.2,0.4,3,0.5,5.4,0.1c2.4-0.4,4-1,5.1-1.9c1.1-0.9,1.4-1.9,1.2-2.9c-0.1-0.4-0.2-0.7-0.5-1       C339.1,203.5,337.2,205,333.4,205.7z"></path>
				</g>
				<g>
					<path class="st5" d="M337,192.9c0.6,1.7,0.5,3.4-0.3,4.8c-0.8,1.4-2.2,2.5-4.5,3.1c-2.2,0.6-4.1,0.4-5.4-0.3       c-1.4-0.7-2.2-1.9-2.7-3.3c-0.5-1.5-0.4-2.8,0.5-3.9c0.8-1.1,2.2-2.1,4.4-2.9c2.2-0.8,3.9-1,5.3-0.6       C335.5,190.2,336.4,191.3,337,192.9z"></path>
					<path class="st6" d="M328.9,190.3c-2.1,0.8-3.6,1.8-4.4,2.9c-0.8,1.1-1,2.4-0.5,3.8c2.4,1.5,5.1,1.3,7.5,0.4       c2.4-0.9,4.5-2.7,5.5-4.1l-0.1-0.4c-0.6-1.7-1.5-2.7-2.8-3.2C332.8,189.3,331.1,189.5,328.9,190.3z"></path>
					<path class="st2" d="M331,196.6c-3.7,1.1-6.1,0.9-7.2-0.2c-0.1,0.3-0.1,0.6,0.1,1c0.3,0.8,1.1,1.4,2.3,1.7       c1.3,0.2,3.1,0.1,5.4-0.5c2.3-0.7,3.9-1.5,4.8-2.5c0.9-1,1.2-2,0.9-3c-0.1-0.4-0.3-0.7-0.6-0.9       C336.5,193.8,334.8,195.4,331,196.6z"></path>
				</g>
				<g>
					<path class="st5" d="M333.5,183.4c1.3,3.3,0.3,6.7-4.1,8.2c-4.4,1.5-7.3-0.1-8.5-3c-1.2-2.9,0.1-5.2,4.3-7.2       C329.4,179.4,332.1,180.1,333.5,183.4z"></path>
					<path class="st6" d="M325.2,181.4c-4.2,1.9-5.5,4.2-4.3,7.1c2.5,1.3,5.2,0.9,7.5-0.2c2.3-1.1,4.3-3,5.2-4.6l-0.1-0.3       C332.1,180.1,329.4,179.4,325.2,181.4z"></path>
					<path class="st2" d="M327.8,187.5c-3.6,1.4-6,1.3-7.2,0.4c0,0.3,0,0.6,0.1,1c0.7,1.7,3.3,2.2,7.8,0.5c4.5-1.7,6-4,5.3-5.9       c-0.2-0.4-0.4-0.6-0.6-0.9C333.1,184.2,331.4,186,327.8,187.5z"></path>
				</g>
				<g>
					<path class="st5" d="M329.3,174.4c0.8,1.6,1,3.2,0.4,4.7c-0.6,1.5-1.8,2.8-4,3.8c-2.1,0.9-3.9,1-5.4,0.5       c-1.5-0.5-2.6-1.5-3.3-2.9c-1.4-2.8-0.3-5.2,3.8-7.4c2-1.1,3.7-1.6,5.1-1.3C327.5,171.9,328.6,172.8,329.3,174.4z"></path>
					<path class="st6" d="M321,173c-4,2.2-5.1,4.6-3.8,7.3c2.6,1.1,5.3,0.6,7.5-0.7c2.2-1.3,4-3.3,4.9-4.9l-0.1-0.3       c-0.7-1.6-1.9-2.5-3.3-2.7C324.7,171.4,323,171.9,321,173z"></path>
					<path class="st2" d="M324,178.9c-3.5,1.7-5.9,1.8-7.1,0.9c0,0.3,0,0.6,0.2,1c0.8,1.6,3.4,2,7.8,0c4.4-2,5.7-4.4,4.8-6.2       c-0.2-0.3-0.4-0.6-0.7-0.8C329,175.3,327.5,177.2,324,178.9z"></path>
				</g>
				<g>
					<path class="st5" d="M324.4,165.3c0.9,1.5,1.2,3.1,0.8,4.7c-0.4,1.5-1.6,2.9-3.7,4c-2,1.1-3.9,1.3-5.3,0.9       c-1.5-0.4-2.6-1.3-3.5-2.7c-1.6-2.7-0.7-5.2,3.2-7.7C319.8,162,322.7,162.3,324.4,165.3z"></path>
					<path class="st6" d="M316,164.6c-3.8,2.5-4.8,4.9-3.3,7.6c2.7,0.9,5.3,0.1,7.5-1.3c2.1-1.4,3.8-3.6,4.5-5.2l-0.2-0.3       C322.7,162.3,319.8,162,316,164.6z"></path>
					<path class="st2" d="M319.4,170.2c-3.4,1.9-5.8,2.2-7,1.4c0,0.3,0.1,0.6,0.3,0.9c0.5,0.8,1.4,1.2,2.7,1.1c1.3,0,3-0.6,5.1-1.7       c2.1-1.2,3.5-2.4,4.1-3.5c0.7-1.1,0.7-2.2,0.2-3.1c-0.2-0.3-0.4-0.6-0.7-0.8C324.2,166.3,322.8,168.3,319.4,170.2z"></path>
				</g>
				<g>
					<path class="st5" d="M319,157.3c1.9,2.8,1.7,6.3-2.2,8.6c-3.8,2.4-6.9,1.4-8.6-1c-1.8-2.4-1-4.9,2.5-7.7       C314.2,154.4,316.9,154.5,319,157.3z"></path>
					<path class="st6" d="M310.7,157.2c-3.5,2.7-4.3,5.2-2.6,7.6c2.6,0.7,5.1-0.2,7.1-1.8c2-1.5,3.4-3.7,4-5.4l-0.2-0.3       C316.9,154.5,314.2,154.4,310.7,157.2z"></path>
					<path class="st2" d="M314.5,162.4c-3.1,2.1-5.4,2.5-6.7,1.9c0,0.3,0.1,0.6,0.3,0.9c1,1.4,3.5,1.4,7.4-1.1       c3.9-2.5,4.8-5.1,3.7-6.7c-0.2-0.3-0.5-0.5-0.8-0.7C318.8,158.2,317.6,160.2,314.5,162.4z"></path>
				</g>
				<g>
					<path class="st5" d="M313,149.8c1.1,1.3,1.7,2.8,1.5,4.3c-0.2,1.5-1.1,3-2.9,4.3c-1.8,1.3-3.4,1.8-4.8,1.7       c-1.4-0.1-2.7-0.8-3.6-1.9c-0.5-0.6-0.8-1.1-0.9-1.7c-0.2-0.6-0.2-1.2-0.1-1.8c0.3-1.3,1.2-2.7,2.8-4.2c1.6-1.5,3-2.3,4.4-2.5       c0.7-0.1,1.3,0.1,2,0.4C311.9,148.6,312.5,149.1,313,149.8z"></path>
					<path class="st6" d="M304.9,150.5c-1.6,1.5-2.5,2.9-2.8,4.1c-0.3,1.2,0.1,2.3,0.9,3.5c2.6,0.4,5-0.7,6.8-2.4       c1.8-1.7,3-3.9,3.4-5.6l-0.2-0.3c-0.5-0.6-1.1-1.1-1.7-1.4c-0.6-0.3-1.3-0.4-2-0.4C308,148.1,306.5,148.9,304.9,150.5z"></path>
					<path class="st2" d="M309.1,155.1c-2.9,2.3-5.1,3-6.3,2.5c0,0.3,0.2,0.6,0.4,0.8c1.1,1.3,3.6,1,7.2-1.8s4.3-5.3,3-6.8       c-0.2-0.3-0.5-0.5-0.8-0.6C312.9,150.7,311.9,152.8,309.1,155.1z"></path>
				</g>
				<g>
					<path class="st5" d="M306.4,143.1c1.3,1.1,1.9,2.6,1.9,4c0,1.5-0.7,3-2.3,4.4c-1.6,1.4-3.1,2.1-4.5,2.1c-1.4,0-2.6-0.6-3.6-1.5       c-1-0.9-1.4-2-1.3-3.3c0.1-1.2,0.8-2.7,2.1-4.3c1.3-1.7,2.7-2.7,3.9-2.9C303.9,141.5,305.1,142,306.4,143.1z"></path>
					<path class="st6" d="M298.7,144.6c-1.3,1.6-2,3-2.1,4.3c-0.2,1.3,0.3,2.3,1.2,3.2c2.6,0,4.7-1.2,6.2-3c1.6-1.8,2.5-4.1,2.6-5.8       l-0.2-0.2c-1.2-1.1-2.5-1.6-3.8-1.4C301.3,142,300,143,298.7,144.6z"></path>
					<path class="st2" d="M303.2,148.6c-2.5,2.5-4.6,3.4-5.9,3.1c0.1,0.3,0.2,0.5,0.5,0.7c0.3,0.3,0.7,0.4,1.1,0.5       c0.4,0.1,0.9,0,1.5-0.2c1.1-0.4,2.5-1.2,4.1-2.8c1.6-1.5,2.5-2.9,2.8-4.1c0.2-0.6,0.2-1.1,0.1-1.6c-0.1-0.5-0.4-0.9-0.7-1.2       c-0.3-0.2-0.6-0.4-0.9-0.5C306.4,144,305.7,146.1,303.2,148.6z"></path>
				</g>
				<g>
					<path class="st5" d="M298.6,136.9c1.4,1,2.3,2.3,2.5,3.7c0.2,1.4-0.3,3-1.6,4.6c-1.3,1.6-2.8,2.4-4.1,2.7       c-1.3,0.3-2.6-0.1-3.6-0.8c-2.2-1.3-2.3-3.7-0.4-7.4C293.3,136,295.7,135.1,298.6,136.9z"></path>
					<path class="st6" d="M291.3,139.7c-1.9,3.7-1.8,6,0.3,7.3c2.4-0.3,4.3-1.9,5.5-3.8c1.3-2,1.8-4.4,1.7-6       c-0.1-0.1-0.2-0.1-0.3-0.2C295.7,135.1,293.3,136,291.3,139.7z"></path>
					<path class="st2" d="M296.3,142.9c-2.1,2.9-3.8,3.9-5.1,3.9c0.1,0.2,0.3,0.4,0.5,0.6c1.2,0.9,3.4,0,6-3.4       c2.7-3.4,2.7-5.9,1.1-7.1c-0.3-0.2-0.7-0.3-1-0.3C298.8,137.8,298.4,140,296.3,142.9z"></path>
				</g>
			</g>
			<g>
				<path class="st5" d="M295.5,137.4c0,3.5-2.9,6.3-9.1,6.3s-9.1-2.8-9.1-6.3c0-3.5,2.9-5.2,9.1-5.2S295.5,133.9,295.5,137.4z"></path>
				<path class="st6" d="M286.4,132.2c-6.1,0-9,1.7-9.1,5.1c4.9,4.8,14.2,2.6,18.1,0.5c0-0.1,0-0.2,0-0.4      C295.5,133.9,292.6,132.2,286.4,132.2z"></path>
				<path class="st2" d="M286.5,139.1c-5.2,0-8.1-1.1-9.1-2.5c-0.2,0.3-0.3,0.7-0.3,1c0,2,3,3.6,9.4,3.6c6.4,0,9.4-1.6,9.4-3.6      c0-0.4-0.1-0.7-0.3-1C294.6,138,291.6,139.1,286.5,139.1z"></path>
			</g>
			<path class="st2" d="M273.5,121.4l0.9,7.9c0.3,2.2,2.2,3.9,4.4,3.9l14.3-0.1c2.4,0,4.4-2,4.4-4.4v-10.3L273.5,121.4z"></path>
			<path class="st2" d="M283,129.8l0.3,3.1c0.2,1.5,1.4,2.6,2.9,2.6l0,0c1.6,0,3-1.3,3-3v-2.8H283z"></path>
		</g>
		<g>
			<g>
				<path class="st8" d="M243.6,74.9l-2.6,34.8l-3.9-0.6c0,0-4.6-1.9-3.2-17.9c1.3-14.6,5.9-16.3,5.9-16.3L243.6,74.9z"></path>
				<path class="st9" d="M244.4,114.1l4.9,0l3.6-43.6l-4.8-0.6c-3.5-0.4-6.6,2.1-6.9,5.5l-2.7,32.5      C238.1,111.3,240.8,114.1,244.4,114.1z"></path>
				<g>
					<path class="st10" d="M313.4,122.3l-58.5-0.4c-6.4,0-11.3-5.2-10.8-11.5l3.1-39.2c0.5-6.3,6.1-10.9,12.5-10.3l58.1,5.8       c5.2,0.5,9,5.4,8.5,11l-2.8,34.7C323.1,117.9,318.6,122.4,313.4,122.3z"></path>
					<path class="st8" d="M306.8,69.1l-39.3-5.6l2.6-6.5c1.5-3.8,5.3-5.8,9.1-5.1l16.3,3c2.4,0.4,4.5,2.1,5.8,4.4L306.8,69.1z"></path>
					<path class="st9" d="M290.9,61l-8.5-1.4c-2.6-0.4-4.5-3-4.2-5.7l0.2-2.4c0.2-2.8,2.5-4.6,5.1-4.1l8.4,1.7       c2.4,0.5,4.1,3,3.9,5.6l-0.2,2.3C295.4,59.6,293.3,61.4,290.9,61z"></path>
					<path class="st9" d="M318.7,76.3l-7-0.9c-2.1-0.3-3.7-2.5-3.5-5l0.2-2.2c0.2-2.5,2.1-4.2,4.2-3.9l7,1.1c2,0.3,3.4,2.5,3.2,4.9       l-0.2,2.1C322.4,74.8,320.7,76.5,318.7,76.3z"></path>
					<path class="st8" d="M315.1,121.8l-51.8,1.7c-6.1,0.2-10.9-4.7-10.3-11l3.2-39.1c0.5-6.3,6-10.7,12.1-9.8l51.1,7.3       c4.2,0.6,7.2,5.2,6.8,10.2l-2.6,31.4C323.1,117.5,319.4,121.7,315.1,121.8z"></path>
					<g>
						<g>
							<path class="st9" d="M321.8,98.6c-0.3,3.8-3.1,6.8-6.3,6.7c-3.3-0.1-5.7-3.3-5.4-7.2c0.3-3.9,3.3-6.9,6.5-6.7         C319.9,91.6,322.1,94.8,321.8,98.6z"></path>
							<path class="st8" d="M320.1,98.5c-0.2,2.6-2.2,4.7-4.4,4.6c-2.2-0.1-3.9-2.3-3.7-5c0.2-2.7,2.2-4.7,4.5-4.6         C318.7,93.7,320.3,95.9,320.1,98.5z"></path>
							<path class="st9" d="M318.4,98.5c-0.1,1.5-1.2,2.7-2.5,2.6c-1.3,0-2.2-1.3-2.1-2.9c0.1-1.5,1.3-2.7,2.6-2.6         C317.6,95.7,318.5,96.9,318.4,98.5z"></path>
							<path class="st9" d="M316.9,84.8c-0.2,2.3-1.9,4.1-3.9,3.9c-2-0.2-3.5-2.2-3.3-4.6c0.2-2.4,2-4.2,4-3.9         C315.6,80.4,317,82.5,316.9,84.8z"></path>
							<path class="st8" d="M315.3,84.7c-0.1,1.3-1.1,2.4-2.3,2.3c-1.2-0.1-2-1.3-1.9-2.7c0.1-1.4,1.1-2.4,2.3-2.3         C314.6,82.1,315.5,83.3,315.3,84.7z"></path>
						</g>
						<path class="st9" d="M312.2,111.5l-2,0c-0.6,0-1-0.6-1-1.3l0,0c0.1-0.7,0.6-1.2,1.2-1.2l2,0c0.6,0,1,0.6,0.9,1.2v0        C313.3,111,312.8,111.5,312.2,111.5z"></path>
						<path class="st9" d="M318.5,111.6l-1.9,0c-0.6,0-1-0.6-0.9-1.2v0c0.1-0.7,0.6-1.2,1.1-1.2l1.9,0c0.6,0,1,0.6,0.9,1.2l0,0        C319.6,111,319.1,111.6,318.5,111.6z"></path>
						<path class="st9" d="M320.6,86.1l-1.9-0.2c-0.6-0.1-1-0.6-0.9-1.3l0,0c0.1-0.7,0.6-1.2,1.1-1.1l1.9,0.2        c0.5,0.1,0.9,0.6,0.9,1.3v0C321.7,85.6,321.2,86.1,320.6,86.1z"></path>
					</g>
					<g>
						<path class="st9" d="M260.9,83.8l-1.6-0.1c-1-0.1-1.7-1-1.6-1.9l0.1-1.3c0.1-1,1-1.7,1.9-1.6l1.6,0.1c1,0.1,1.7,1,1.6,1.9        l-0.1,1.2C262.7,83.2,261.8,83.9,260.9,83.8z"></path>
						<path class="st9" d="M260.2,92.3l-1.6-0.1c-1-0.1-1.7-0.9-1.7-1.9l0.1-1.3c0.1-1,1-1.7,1.9-1.7l1.6,0.1c1,0.1,1.7,0.9,1.6,1.9        l-0.1,1.2C262,91.6,261.1,92.3,260.2,92.3z"></path>
						<path class="st9" d="M259.3,102.5l-1.6,0c-1,0-1.7-0.9-1.7-1.8l0.1-1.3c0.1-1,1-1.8,2-1.7l1.6,0.1c1,0,1.7,0.9,1.6,1.8        l-0.1,1.2C261.2,101.7,260.3,102.5,259.3,102.5z"></path>
						<path class="st9" d="M258.7,109.4l-1.6,0c-1,0-1.7-0.8-1.7-1.8l0.1-1.3c0.1-1,1-1.8,2-1.8l1.6,0c1,0,1.7,0.8,1.6,1.8l-0.1,1.2        C260.6,108.6,259.7,109.4,258.7,109.4z"></path>
					</g>
				</g>
			</g>
			<g>
				<defs>
					<path id="XMLID_4_" d="M300,111.5l-31.8-0.1c-3.3,0-5.8-2.8-5.6-6.2l1.9-23.5c0.3-3.4,3.2-5.9,6.5-5.6l31.5,3.4       c2.7,0.3,4.6,3,4.3,6l-1.7,20.6C305.1,109.1,302.7,111.5,300,111.5z"></path>
				</defs>
				<use xlink:href="#XMLID_4_" style="overflow:visible;fill:#495362;"></use>
				<clipPath id="XMLID_2_">
					<use xlink:href="#XMLID_4_" style="overflow:visible;"></use>
				</clipPath>
				<g class="st11">
					<path class="st0" d="M291.8,91.4c1-2.9,2.7-3.6,3.9-1.8c1.2,1.8-0.8,6.2-0.8,6.2L291.8,91.4z"></path>
					<path class="st1" d="M278.1,88.8c0,0,4.4-1.7,11.4-1.6c2.5,0.2,3.3,1.2,3.7,2.4c0.4,1.2,2.5,7.5,2.5,7.5s5.4,0.6,5.9,1.9       s0.5,4.6-4.4,9.2c-0.5,3.4,3.7,19.2,3.7,19.2l-28.7,6.4c0,0-2-22.1,3.3-39.4L278.1,88.8z"></path>
					<path class="st1" d="M279.8,90.3c-4.6-6.2-7.4-2.9-7.1,0.7c0.3,3.7,3.7,6.4,3.7,6.4L279.8,90.3z"></path>
					<ellipse transform="matrix(0.9758 -0.2186 0.2186 0.9758 -13.6779 66.4677)" class="st2" cx="293.5" cy="95" rx="0.8" ry="1"></ellipse>
					
						<ellipse transform="matrix(0.9758 -0.2186 0.2186 0.9758 -14.0626 65.3467)" class="st2" cx="288.3" cy="96.2" rx="0.8" ry="1"></ellipse>
					<path class="st2" d="M299,99.5c-0.9-0.8-4.9-0.1-5.4,1.2c-0.5,1.3,2,3.2,3.5,2.9C298.6,103.2,300.2,100.5,299,99.5z"></path>
					<path class="st1" d="M279.6,88.6c1.8-4.3,5.1-5.6,5.6-5.5c0.5,0.1-1.6,3-1.6,3s2.5-2.6,6.3-2.3c1.9,0.2-2.2,1.9-2.2,1.9       s3.4-0.9,6,0c2.6,0.9-4.4,1.6-4.4,1.6L279.6,88.6z"></path>
					<path class="st2" d="M285.7,103.7c0.5-0.9,1.4-1.3,2.5-0.3c1,0.9,2.9,1.8,3.5,1.9c0.6,0.2,1,0.5,0.6,1.4       c-0.5,1.1-2.6,2.1-4.9,1.6C285.4,108,285,105,285.7,103.7z"></path>
					<path class="st3" d="M285.5,106.2c0.2,1,0.9,2,2,2.2c1,0.2,1.9,0.1,2.7-0.1C289.6,107.2,287.7,106,285.5,106.2z"></path>
				</g>
			</g>
			<path class="st12" d="M271.5,106.4c-0.1,0.8-0.7,1.4-1.3,1.4c-0.7,0-1.2-0.6-1.1-1.4c0.1-0.8,0.7-1.4,1.4-1.4     C271,105,271.5,105.7,271.5,106.4z"></path>
			<g>
				<path class="st12" d="M300.4,83.3c-0.1,0.7-0.6,1.2-1.2,1.2c-0.6-0.1-1.1-0.7-1-1.4c0.1-0.7,0.6-1.2,1.2-1.2      C300,82,300.4,82.6,300.4,83.3z"></path>
				<polygon class="st0" points="304.4,84.7 300.8,84.3 301,82.3 304.5,82.7     "></polygon>
			</g>
			<g>
				<polygon class="st12" points="272.3,82.3 271.4,82.2 271.6,79.2 272.6,79.3     "></polygon>
			</g>
			<g>
				<polygon class="st12" points="270.2,82.1 269.2,82 269.5,79 270.4,79.1     "></polygon>
			</g>
		</g>
	</g>
</g>
</svg>