<svg xmlns="http://www.w3.org/2000/svg" xmlns:xlink="http://www.w3.org/1999/xlink" id="Layer_1" x="0px" y="0px" width="450px" height="170px" viewBox="0 0 450 170" style="enable-background:new 0 0 450 170;" xml:space="preserve">
<style type="text/css">
	.st0{fill:#02CCC6;}
</style>
<g>
	<g>
		<path class="st0" d="M3.5,145.6c0,16.3,460.4,38.2,442.5,0c0,0-49.8-113.2-113.6-95.9c-32.1,8.7-41.7,29.7-68.2,31.1    c-31,1.6-41.3-10.5-66.1-10.3c-33.8,0.3-27,20.7-54,32.5s-41.6-6.7-74.2,3.7c-22.6,7.2-22.4,31.2-43.2,30.2    C5.3,135.9,3.9,140.8,3.5,145.6z"></path>
	</g>
	<g>
		<g>
			<polygon class="st0" points="336.5,37.4 325.1,49.9 339.8,48.5 353.1,51.4 351.4,48.5 360.4,48.5 348.3,36.4    "></polygon>
			<polygon class="st0" points="340.3,25.2 337.2,31.3 328.5,40.8 340.3,39 336.4,42.4 346.9,39 358.7,39 350.2,31 347.1,25.7         "></polygon>
			<polygon class="st0" points="339.6,22.9 334.3,29.3 344.2,26.1 353.1,28.4 345.8,21.2    "></polygon>
			<polygon class="st0" points="344.2,3.2 339.1,18.5 332.8,27.5 344.2,25.2 354.3,26.7 347,17.3    "></polygon>
		</g>
	</g>
	<g>
		<g>
			<polygon class="st0" points="382.9,57.8 371.5,70.3 386.1,68.9 399.4,71.8 397.7,68.9 406.8,68.9 394.7,56.8    "></polygon>
			<polygon class="st0" points="386.7,45.6 383.6,51.7 374.9,61.2 386.7,59.4 382.7,62.8 393.3,59.4 405.1,59.4 396.6,51.4      393.5,46.1    "></polygon>
			<polygon class="st0" points="386,43.3 380.7,49.7 390.6,46.5 399.4,48.8 392.1,41.6    "></polygon>
			<polygon class="st0" points="390.6,23.6 385.5,38.9 379.2,47.9 390.6,45.6 400.6,47.1 393.4,37.7    "></polygon>
		</g>
	</g>
	<g>
		<g>
			<polygon class="st0" points="85.2,93.2 73.8,105.7 88.4,104.3 101.7,107.2 100,104.3 109.1,104.3 97,92.2    "></polygon>
			<polygon class="st0" points="88.9,81 85.9,87.1 77.2,96.6 88.9,94.8 85,98.2 95.6,94.8 107.4,94.8 98.9,86.7 95.8,81.5    "></polygon>
			<polygon class="st0" points="88.3,78.7 83,85 92.8,81.9 101.7,84.2 94.4,77    "></polygon>
			<polygon class="st0" points="92.8,58.9 87.8,74.3 81.4,83.3 92.8,80.9 102.9,82.5 95.7,73.1    "></polygon>
		</g>
	</g>
</g>
</svg>