<svg xmlns="http://www.w3.org/2000/svg" xmlns:xlink="http://www.w3.org/1999/xlink" id="Layer_1" x="0px" y="0px" width="340px" height="280px" viewBox="0 0 340 280" style="enable-background:new 0 0 340 280;" xml:space="preserve">
<style type="text/css">
	.st0{fill:#02B6B0;}
	.st1{opacity:0.1;fill:#3D4654;}
	.st2{fill:#E3F2FD;}
	.st3{fill:#4D7CA1;}
	.st4{fill:#495362;}
	.st5{fill:#3D4654;}
	.st6{fill:#F2D7C0;}
	.st7{fill:#6665DD;}
	.st8{fill:#8686F2;}
	.st9{fill:#5987AB;}
	.st10{fill:#BBDDFC;}
	.st11{fill:#2C324F;}
	.st12{fill:#FFFFFF;}
	.st13{fill:#A4CDEA;}
	.st14{fill:#333C5B;}
	.st15{fill:#02CCC6;}
</style>
<g>
	<g>
		<path class="st0" d="M303,219.7c-14.7-8.6-33-5.8-50.3-17.6c-7.1-4.8-12.1-19.7-20.4-26.8c-22.8-19.8-76-19.8-98.6-19.8    s-32.8,8.5-36.5,13.6c-3.7,5.1-5,16-22.6,19.7c-17.6,3.7-46.7,28-46.7,28c-10.1,7.2-54.5,34.3,4.9,39.5    c59.4,5.2,66.4-1.6,99.7,11.4c33.4,13.1,95.7-9.5,122.8-7.8c27.1,1.6,91-2.4,81.2-14.7C327,233.1,317.6,228.3,303,219.7z"></path>
		<path class="st0" d="M296.1,216.6c0,0-6.4-12.2-9.8-10.8c-4.2,1.6,3.5,11,3.5,11l10.8,3.5c0,0,11.5-6.3,6.8-8.5    C302.8,209.7,296.1,216.6,296.1,216.6z"></path>
		<path class="st0" d="M72,189.4c0,0,3.9-8.2,6.2-7.4c2.8,1-2.6,6.6-2.6,6.6l-6.5,3.3c0,0-7.8-3.9-4.7-5.4    C67.4,185,72,189.4,72,189.4z"></path>
	</g>
	<g>
		<path class="st1" d="M155.6,158.5c-31.2,0.8-39.5,4-22.5,10c17,5.9,113.5,10.6,74.6-4C190.8,158.2,169.4,158.1,155.6,158.5z"></path>
		<path class="st2" d="M131.8,162.9l-1,0.8c-0.6,0.4-0.5,1.3,0.1,1.6c2.5,1.4,8.8,3.9,18.7-0.1L131.8,162.9z"></path>
		<g>
			<path class="st3" d="M204.3,84.4l-48.9,47.1c-2.3,2.2-6.1,2.2-8.3-0.2l-14.2-14.8c-2.2-2.3-2.2-6.1,0.2-8.3l48.9-47.1     c2.3-2.2,6.1-2.2,8.3,0.2l14.2,14.8C206.7,78.5,206.6,82.2,204.3,84.4z"></path>
			<g>
				<g>
					<g>
						<path class="st4" d="M204.9,75.5l3.3,3.1c0.2,0.2,0.6,0.2,0.8,0l0.2-0.2c0.2-0.2,0.2-0.6,0-0.8l-3.3-3.1        c-0.2-0.2-0.6-0.2-0.8,0l-0.2,0.2C204.6,74.9,204.6,75.3,204.9,75.5z"></path>
						<path class="st4" d="M207.5,78.9l5.3,5c0.5,0.5,1.4,0.5,1.9,0v0c0.5-0.5,0.5-1.4,0-1.9l-5.3-5c-0.5-0.5-1.4-0.5-1.9,0l0,0        C206.9,77.5,206.9,78.4,207.5,78.9z"></path>
						<path class="st4" d="M186.6,94.8L186.6,94.8c0.5,0.5,1.3,0.5,1.8,0L208.1,74c0.5-0.5,0.5-1.3,0-1.8l0,0        c-0.5-0.5-1.3-0.5-1.8,0L186.5,93C186,93.5,186,94.3,186.6,94.8z"></path>
						<path class="st5" d="M190.2,94.2L190.2,94.2c0.5,0.5,1.3,0.5,1.8,0l9.1-9.6c0.5-0.5,0.5-1.3,0-1.8l0,0c-0.5-0.5-1.3-0.5-1.8,0        l-9.1,9.6C189.6,92.9,189.7,93.7,190.2,94.2z"></path>
						<path class="st5" d="M187,91.1L187,91.1c0.5,0.5,1.3,0.5,1.8,0l9.1-9.6c0.5-0.5,0.5-1.3,0-1.8h0c-0.5-0.5-1.3-0.5-1.8,0        l-9.1,9.6C186.5,89.8,186.5,90.7,187,91.1z"></path>
						<g>
							<g>
								<path class="st5" d="M214.8,60l7,6.7l0.7-1.4c0.4-0.8,0.2-1.8-0.4-2.4l-2.9-2.8c-0.4-0.4-1.1-0.6-1.7-0.5L214.8,60z"></path>
								<path class="st4" d="M218.9,62l1.4,1.4c0.5,0.4,1.2,0.4,1.6,0l0.3-0.3c0.4-0.5,0.4-1.2,0-1.6l-1.4-1.4          c-0.5-0.4-1.2-0.4-1.6,0l-0.3,0.3C218.4,60.9,218.4,61.6,218.9,62z"></path>
								<path class="st4" d="M211.3,58.5l1.4,1.4c0.5,0.4,1.2,0.4,1.6,0l0.3-0.3c0.4-0.5,0.4-1.2,0-1.6l-1.4-1.4          c-0.5-0.4-1.2-0.4-1.6,0l-0.3,0.3C210.9,57.4,210.9,58.1,211.3,58.5z"></path>
								<path class="st5" d="M203.5,66.8l9.3,8.9c1,0.9,2.5,0.9,3.5-0.1l5.4-5.7c0.9-1,0.9-2.5-0.1-3.5l-9.3-8.9          c-1-0.9-2.5-0.9-3.5,0.1l-5.4,5.7C202.5,64.3,202.5,65.9,203.5,66.8z"></path>
								<g>
									<g>
										<circle class="st4" cx="207.6" cy="62.7" r="1.7"></circle>
										<circle class="st5" cx="207.6" cy="62.7" r="1.2"></circle>
										<circle class="st4" cx="207.6" cy="62.7" r="0.7"></circle>
										<circle class="st4" cx="210.8" cy="61" r="1.1"></circle>
										<circle class="st5" cx="210.8" cy="61" r="0.6"></circle>
									</g>
									<path class="st4" d="M206,65.6l0.4,0.4c0.1,0.1,0.3,0.1,0.4,0l0,0c0.1-0.1,0.1-0.3,0-0.4l-0.4-0.4c-0.1-0.1-0.3-0.1-0.4,0           l0,0C205.8,65.3,205.9,65.5,206,65.6z"></path>
									<path class="st4" d="M204.6,64.3l0.4,0.4c0.1,0.1,0.3,0.1,0.4,0l0,0c0.1-0.1,0.1-0.3,0-0.4l-0.4-0.4           c-0.1-0.1-0.3-0.1-0.4,0l0,0C204.5,64,204.5,64.2,204.6,64.3z"></path>
									<path class="st4" d="M209,59.7l0.4,0.4c0.1,0.1,0.3,0.1,0.4,0l0,0c0.1-0.1,0.1-0.3,0-0.4l-0.4-0.4c-0.1-0.1-0.3-0.1-0.4,0           l0,0C208.9,59.4,208.9,59.5,209,59.7z"></path>
								</g>
								<g>
									<path class="st4" d="M219,70.2l0.2,0.2c0.2,0.1,0.4,0.1,0.6,0l0.2-0.2c0.1-0.2,0.1-0.4,0-0.6l-0.2-0.2           c-0.2-0.1-0.4-0.1-0.6,0l-0.2,0.2C218.8,69.8,218.8,70,219,70.2z"></path>
									<path class="st4" d="M217.8,71.4l0.2,0.2c0.2,0.1,0.4,0.1,0.6,0l0.2-0.2c0.1-0.2,0.1-0.4,0-0.6l-0.2-0.2           c-0.2-0.1-0.4-0.1-0.6,0l-0.2,0.2C217.6,71.1,217.6,71.3,217.8,71.4z"></path>
									<path class="st4" d="M216.3,73l0.2,0.2c0.2,0.1,0.4,0.1,0.6,0l0.2-0.2c0.1-0.2,0.1-0.4,0-0.6l-0.2-0.2           c-0.2-0.1-0.4-0.1-0.6,0l-0.2,0.2C216.1,72.6,216.1,72.8,216.3,73z"></path>
									<path class="st4" d="M215.3,74l0.2,0.2c0.2,0.1,0.4,0.1,0.6,0l0.2-0.2c0.1-0.2,0.1-0.4,0-0.6l-0.2-0.2           c-0.2-0.1-0.4-0.1-0.6,0l-0.2,0.2C215.1,73.6,215.1,73.9,215.3,74z"></path>
								</g>
							</g>
							<path class="st5" d="M218.6,77.3l0.1,0.1c0.4,0.4,1.1,0.4,1.4,0l3.1-3.2c0.4-0.4,0.4-1.1,0-1.4l-0.1-0.1         c-0.4-0.4-1.1-0.4-1.4,0l-3.1,3.2C218.2,76.3,218.2,76.9,218.6,77.3z"></path>
							<path class="st4" d="M216.4,76.8l-0.7-0.6l6.2-6.5l0.7,0.6c0.5,0.5,0.5,1.3,0,1.9l-4.4,4.6C217.8,77.2,217,77.3,216.4,76.8z"></path>
						</g>
						<path class="st4" d="M205.3,73.3l1.8,1.7c0.4,0.4,1,0.4,1.4,0l1.9-2l-3.2-3l-1.9,2C204.9,72.4,204.9,73,205.3,73.3z"></path>
						<path class="st4" d="M197.7,83.1L197.7,83.1c0.9,0.8,2.3,0.8,3.1-0.1l3.9-4.1c0.8-0.9,0.8-2.3-0.1-3.1v0        c-0.9-0.8-2.3-0.8-3.1,0.1l-3.9,4.1C196.7,80.9,196.8,82.3,197.7,83.1z"></path>
					</g>
					<path class="st4" d="M208.4,68l4.7,4.4c0.5,0.5,1.3,0.5,1.8,0l3.5-3.6c0.5-0.5,0.5-1.3,0-1.8l-4.7-4.4c-0.5-0.5-1.3-0.5-1.8,0       l-3.5,3.6C207.9,66.6,207.9,67.5,208.4,68z"></path>
				</g>
			</g>
			<g>
				<path class="st6" d="M197.6,50.1c0,0,10.6-5.4,11.2-5.1c0.5,0.3-3.2,12.4-3.2,12.4l-2.6,2.9l-8.3-6.9L197.6,50.1z"></path>
				<path class="st7" d="M203,55c-2.7,1-3.9-0.5-3.2-3c-3.2,1.1-2.1-2-2.1-2L170.2,80l8,7.3l27.4-29.9C204.3,57.8,202.7,57.1,203,55      z"></path>
				<path class="st8" d="M199.8,52l-25,27.3l3.2,3L203,55C200.3,56,199.1,54.5,199.8,52z"></path>
				<path class="st5" d="M208.8,45c-0.2-0.1-1.7,0.5-3.5,1.3l0.8,1.7l1.6-0.3l0.6,0.4C208.8,46.4,209,45.1,208.8,45z"></path>
			</g>
			<path class="st9" d="M202.8,89.7L160,130.9c-2.3,2.2-6,2.2-8.3-0.2l-17.5-18.2c-2.2-2.3-2.2-6,0.2-8.3L177.1,63     c2.3-2.2,6-2.2,8.3,0.2l17.5,18.2C205.2,83.7,205.1,87.4,202.8,89.7z"></path>
		</g>
		<path class="st2" d="M149.4,78.7c-14.4,1.5-17.4-0.2-26.2-7.4c-3.4-2-11,3.5-11,6.3c0,5.9,13.9,18.4,31.9,23.7    C162.1,106.4,149.4,78.7,149.4,78.7z"></path>
		<path class="st10" d="M152.8,48.2c-2.3-3.7-4.7-4.1-5.8-1.3c-1.1,2.8,2.9,8.1,2.9,8.1L152.8,48.2z"></path>
		<polygon class="st2" points="199.7,97.8 178.8,92.9 184.7,104.3   "></polygon>
		<path class="st2" d="M150.2,49.4l-1.9,7.7c-7.2,1.8-11.8,6.4,0,14.9c-0.7,13.3-10.8,55.6-10.8,55.6s-25.8,6-4.3,37.2    c0.2,0.2,0.4,0.5,0.6,0.6c6.1,4,15.9-0.3,15.9-0.3c-1.3-8.7-5.3-20.3,25.1-18.2l9,20.1c3.1,2.4,20.5,6.5,21.6-2l-28.6-91.5    c0,0-5.8-26.2-7.9-28.3c-1.9-1.9-7.5-4.8-15.7,0C151.6,46.3,150.6,47.7,150.2,49.4z"></path>
		<path class="st2" d="M167.6,44.8c-1.7-4.4-4-5.3-4.5-5.3c-0.4,0.1,1,2.9,1,2.9s-2.6-2.8-6.2-2.5c-1.8,0.2,2,1.9,2,1.9    s-3.2-0.9-5.7,0c-2.5,0.9,4.1,1.7,4.1,1.7L167.6,44.8z"></path>
		<path class="st2" d="M168.5,48.1c4.9-6.5,7.3-2.6,6.8,1.4c-0.5,4-4,6.7-4,6.7L168.5,48.1z"></path>
		<ellipse class="st11" cx="154.5" cy="54.4" rx="1.1" ry="1.4"></ellipse>
		<ellipse class="st11" cx="161.9" cy="54.4" rx="1.1" ry="1.4"></ellipse>
		<path class="st11" d="M149.5,62.9c0.9-1.4,5.9-1.6,6.9,0c1,1.6-1.5,4.9-3.5,4.9C151,67.8,148.4,64.6,149.5,62.9z"></path>
		<g>
			<path class="st5" d="M215.5,119.9l-30.7,9.7c-2,0.6-4-0.4-4.4-2.2l-5.1-21.9c-0.4-1.9,0.9-3.6,3-3.9l31.9-4.7     c1.4-0.2,2.7,0.8,3.1,2.3l4,17.4C217.5,118,216.8,119.5,215.5,119.9z"></path>
			<path class="st4" d="M216.5,119.8l-32.3,10.1c-2.1,0.6-4.1-0.3-4.5-2.2l-4.9-21.4c-0.4-1.8,1-3.6,3.1-3.9l33.4-5.2     c1.4-0.2,2.8,0.8,3.1,2.2l3.9,16.9C218.7,117.8,217.8,119.3,216.5,119.8z"></path>
			<path class="st12" d="M198,112.4c0.2,0.7-0.3,1.5-1.1,1.7c-0.8,0.2-1.6-0.3-1.7-1s0.3-1.5,1.1-1.7     C197,111.2,197.8,111.6,198,112.4z"></path>
		</g>
		<path class="st12" d="M167.2,62.8c0.9-0.9,2.2-1,2.7,0.3s0.5,3.5-0.5,4.4s-3.2,2.1-6.1,1c-1-0.5-1.5-1.5,0.1-2.3    C164.8,65.3,167.2,62.8,167.2,62.8z"></path>
		<path class="st2" d="M170.2,64.3c0-0.4-0.1-0.8-0.2-1.1c-0.7,1.3-1,1.5-1,1.5l-0.1,0.8l-0.5-0.1l-1.1,0.9l1.1-0.4L169,66l0.4-1.1    L170.2,64.3z"></path>
		<path class="st10" d="M127.2,75.7c0.1-0.4,0.1-0.7,0.2-1.1c-0.3-0.2-0.6-0.4-0.8-0.6c-0.1,0.6-0.2,1.1-0.3,1.7    c-0.7,3.6-3.3,5.8-7.8,6l0.3,0C123.6,81.7,126.5,79.5,127.2,75.7z"></path>
		<g>
			<path class="st9" d="M128.3,10.1c0,0-1.9-3-5.1-0.9l-10.8,155l5.3,1.6l3.6-0.7L128.3,10.1z"></path>
			<g>
				<path class="st10" d="M104.9,17.7c0,0-7.4,9.1-18,5.6l-0.7,26.2c0,0,10.5,5.8,15.7,1L104.9,17.7z"></path>
				<path class="st10" d="M104.9,17.7c0,0-7.4,9.1-18,5.6l-0.7,26.2c0,0,10.5,5.8,15.7,1L104.9,17.7z"></path>
				<path class="st13" d="M101.9,50.6c0,0-0.1-3.8-4.1-4.9l5.6-4.2L101.9,50.6z"></path>
				<g>
					<path class="st11" d="M100.4,29.3c-2.8-1.4-9.4-2.3-12.7,4.1c-3.3,6.4,3.4,11.1,6.9,12.1s8.2-0.2,10.6-5.3       C107.6,35,102.9,30.4,100.4,29.3z M93.3,43c-4.7-2.2-4.5-6.8-3-9.6s6-4.6,9.8-2.3c3.8,2.3,3.8,5.8,2.8,8.4       C101.9,42.2,98,45.3,93.3,43z"></path>
					<path class="st11" d="M93.1,24.5C91,24,88.7,27.1,90.7,28C92.6,28.9,94.1,24.8,93.1,24.5z"></path>
					<path class="st11" d="M97.7,27.1c2.1,1,2.8-3.6,1.8-3.7C98.4,23.2,94.8,25.8,97.7,27.1z"></path>
					<path class="st11" d="M105,29.8c1.2-0.9,0.4-3.8-0.7-4.1c-0.7-0.2-1.8,2.4-1.5,3.4C103,30,104.1,30.4,105,29.8z"></path>
					<path class="st11" d="M107.4,30.4c-0.4-0.1-1.9,2.3-1.3,3.5c0.6,1.2,1.9,1,2.2,0.5C109.3,33.3,108.5,30.7,107.4,30.4z"></path>
				</g>
				<path class="st13" d="M86.2,49.6c0,0,1.3-2.4,3.2-2.4l-3.1-1L86.2,49.6z"></path>
				<path class="st2" d="M100,13.3l-2.2,32.5c0,0,14.4-0.5,23.3,18.7l2.8-47.9C123.9,16.5,114.8,8.8,100,13.3z"></path>
				<path class="st2" d="M91.7,19.1c0,0-11.6,1-19.2-7.7c3.7,5.7,6.8,9.8,0.6,7.7c1.7,2.6,3.7,6.5-1.8,4.5c1.9,2.6,2.1,7.7-3.2,5.6      c0,2.7-3.8,1.9-3.8,1.9s8.5,18.4,25.2,16L91.7,19.1z"></path>
				<path class="st2" d="M90.3,30.8c0.1-0.3,0.3-0.5,0.5-0.8l-0.6,7.6C88.8,35.4,89.2,32.7,90.3,30.8z"></path>
				<g>
					<g>
						<path class="st14" d="M91,26.9L90.8,30c-0.2,0.2-0.4,0.5-0.5,0.8c-1,1.9-1.4,4.6-0.1,6.9L90,40.1c-2.5-2.2-4.3-5.5-2.2-9.4        C88.7,28.9,89.8,27.7,91,26.9z"></path>
						<path class="st14" d="M91.4,22.1l-0.3,3.3c-0.1,0-0.3-0.1-0.4-0.1C89.3,24.6,90.1,22.8,91.4,22.1z"></path>
					</g>
				</g>
				<g>
					<path class="st14" d="M104,34.4c-1.4,2.9-3.5,4.5-5.8,5.2l0.2-2.3c1.6-0.8,2.8-2.2,3.3-3.5c1-2.5,1-5.9-2.5-8.2l0.1-2       C101.7,24.9,106.3,29.4,104,34.4z"></path>
					<path class="st14" d="M103.8,24.1c1.2-0.9,0.4-3.8-0.7-4.1c-0.7-0.2-1.8,2.4-1.5,3.4C101.8,24.3,102.9,24.8,103.8,24.1z"></path>
					<path class="st14" d="M106.1,24.8c-0.4-0.1-1.9,2.3-1.3,3.5s1.9,1,2.2,0.5C108,27.6,107.2,25,106.1,24.8z"></path>
				</g>
			</g>
			<path class="st15" d="M123.7,164.8c-2-0.2-4,0-5.8,0.6c-4.9-2.2-8.8-1.7-8.8-1.7c5.4,1.1,7.3,2.4,7.3,2.4     c-1.7,0.7-3.7,2.2-3.7,2.2S119.8,165.6,123.7,164.8z"></path>
		</g>
		<g>
			<path class="st2" d="M171.9,72.8c0,0,20.7,4.5,31.3,11.6c11.6,7.8,11.7,18.2,10.5,26.2c-1.1,7.3-2.3,8.5-5.1,8.4     c-9,0-11.7-19.7-11.7-19.7l-20.9-5.5L171.9,72.8z"></path>
		</g>
		<g>
			<path class="st3" d="M190.9,77.2l0.3-0.8c0,0-8.3-4.2-14-2.9C187.9,77,190.9,77.2,190.9,77.2z"></path>
			<path class="st9" d="M177.2,73.6c0,0-12.1,21.9-35.2,28.3c-1.7,2.7-1.1,10.6-1.1,10.6s33.4,0,50-35.3     C190.9,77.2,182.3,72.8,177.2,73.6z"></path>
			<path class="st3" d="M140.9,112.5c0,0,33.4,0,50-35.3c0,0-0.5-0.3-1.3-0.6C174.5,111.3,140.9,112.5,140.9,112.5z"></path>
		</g>
		<g>
			<path class="st2" d="M117.8,81.8c4.8-0.1,7.7-2.3,8.4-6.1c0.7-3.8,1-7.8-3.2-9c-4.1-1.3-9.5,0.9-10.9,5.5s1.1,8.8,1.1,8.8     L117.8,81.8z"></path>
		</g>
		<g>
			<path class="st11" d="M193.1,170.9c-0.2,0-0.3-0.1-0.4-0.2l-1.7-3.3c-0.1-0.2,0-0.5,0.2-0.6c0.2-0.1,0.5,0,0.6,0.2l1.7,3.3     c0.1,0.2,0,0.5-0.2,0.6C193.3,170.9,193.2,170.9,193.1,170.9z"></path>
			<path class="st11" d="M198.9,170.8c-0.2,0-0.4-0.1-0.4-0.3l-1-4.1c-0.1-0.2,0.1-0.5,0.3-0.5c0.2-0.1,0.5,0.1,0.5,0.3l1,4.1     C199.3,170.5,199.2,170.7,198.9,170.8C198.9,170.8,198.9,170.8,198.9,170.8z"></path>
			<path class="st11" d="M203.3,169.3c-0.2,0-0.4-0.2-0.4-0.4l-0.3-2.7c0-0.2,0.1-0.4,0.4-0.5c0.2,0,0.4,0.1,0.5,0.4l0.3,2.7     C203.7,169,203.5,169.3,203.3,169.3C203.3,169.3,203.3,169.3,203.3,169.3z"></path>
			<path class="st11" d="M139.6,167.8c-0.1,0-0.2,0-0.3-0.1c-0.2-0.1-0.2-0.4-0.1-0.6c0.1-0.1,1.5-1.9,3-2.5c0.2-0.1,0.5,0,0.6,0.2     c0.1,0.2,0,0.5-0.2,0.6c-1.3,0.5-2.7,2.3-2.7,2.3C139.9,167.8,139.8,167.8,139.6,167.8z"></path>
			<path class="st11" d="M135.3,167.4c0,0-0.1,0-0.1,0c-0.2-0.1-0.4-0.3-0.3-0.5c0-0.1,0.6-1.9,2.3-2.8c0.2-0.1,0.5,0,0.6,0.2     c0.1,0.2,0,0.5-0.2,0.6c-1.4,0.8-1.9,2.3-1.9,2.3C135.6,167.3,135.4,167.4,135.3,167.4z"></path>
			<path class="st11" d="M132,166.2c-0.1,0-0.1,0-0.2,0c-0.2-0.1-0.3-0.3-0.2-0.6c0,0,0.5-1.2,1.3-1.8c0.2-0.1,0.4-0.1,0.6,0.1     c0.1,0.2,0.1,0.5-0.1,0.6c-0.6,0.5-1.1,1.5-1.1,1.5C132.3,166.1,132.2,166.2,132,166.2z"></path>
			<path class="st11" d="M205.4,118.5c-0.2,0-0.3-0.1-0.4-0.3c-0.3-0.8-0.5-2.4-0.5-2.5c0-0.2,0.1-0.4,0.4-0.5     c0.2,0,0.4,0.1,0.5,0.4c0,0,0.2,1.6,0.4,2.3c0.1,0.2-0.1,0.5-0.3,0.5C205.4,118.5,205.4,118.5,205.4,118.5z"></path>
			<path class="st11" d="M208.2,119.3C208.1,119.3,208.1,119.3,208.2,119.3c-0.3,0-0.5-0.2-0.4-0.5c0.2-1.5,0-3.2,0-3.2     c0-0.2,0.1-0.4,0.4-0.5c0.2,0,0.4,0.1,0.5,0.4c0,0.1,0.2,1.8,0,3.4C208.5,119.2,208.4,119.3,208.2,119.3z"></path>
			<path class="st11" d="M210.7,119c0,0-0.1,0-0.1,0c-0.2-0.1-0.3-0.3-0.2-0.5c0.4-1,0.5-2.6,0.5-2.7c0-0.2,0.2-0.4,0.4-0.4     c0.2,0,0.4,0.2,0.4,0.4c0,0.1-0.1,1.8-0.5,2.9C211.1,118.9,210.9,119,210.7,119z"></path>
			<path class="st11" d="M125.4,78.3c-0.2,0-0.4-0.1-0.4-0.3l0,0c0,0-0.3-1.1-1.6-1.5c-0.2-0.1-0.4-0.3-0.3-0.5     c0.1-0.2,0.3-0.4,0.5-0.3c1.8,0.5,2.2,2,2.2,2.1c0.1,0.2-0.1,0.5-0.3,0.5C125.5,78.3,125.5,78.3,125.4,78.3z"></path>
			<path class="st11" d="M126.3,74.2c-0.2,0-0.3-0.1-0.4-0.3c0,0-0.4-0.9-1.7-1.2c-0.2-0.1-0.4-0.3-0.3-0.5c0.1-0.2,0.3-0.4,0.5-0.3     c1.7,0.5,2.2,1.7,2.2,1.7c0.1,0.2,0,0.5-0.2,0.6C126.5,74.2,126.4,74.2,126.3,74.2z"></path>
			<path class="st11" d="M126.3,70.6c-0.1,0-0.3-0.1-0.4-0.2c-0.6-1-1.5-0.9-1.6-0.8c-0.2,0-0.5-0.1-0.5-0.3c0-0.2,0.1-0.5,0.3-0.5     c0.5-0.1,1.8,0,2.5,1.3c0.1,0.2,0,0.5-0.2,0.6C126.5,70.6,126.4,70.6,126.3,70.6z"></path>
		</g>
	</g>
</g>
</svg>