<svg xmlns="http://www.w3.org/2000/svg" xmlns:xlink="http://www.w3.org/1999/xlink" id="Layer_1" x="0px" y="0px" width="407px" height="167px" viewBox="0 0 407 167" style="enable-background:new 0 0 407 167;" xml:space="preserve">
<style type="text/css">
	.st0{fill:#02DED7;}
</style>
<g>
	<g>
		<path class="st0" d="M5.1,147.2c0,0,5.5-11.9,22-13c12.1-0.8,13-15.1,19.5-20.6c12.5-10.6,31,7.5,51.6-16.1    c16.7-19.1,29.3-45.1,60.9-39.3s43.5,10,57.6,0C239.1,42.4,253.2,11,293.2,13c55.9,2.8,108.7,134.2,108.7,134.2    c-10.9,22.9-364,22.5-341.9,6.6C72.9,144.5,8,152.5,5.1,147.2z"></path>
	</g>
	<g>
		<g>
			<polygon class="st0" points="83.8,100.3 77.1,107.6 85.7,106.8 93.4,108.5 92.4,106.8 97.7,106.8 90.6,99.7    "></polygon>
			<polygon class="st0" points="86,93.2 84.2,96.8 79.1,102.3 86,101.2 83.7,103.2 89.8,101.2 96.7,101.2 91.7,96.6 89.9,93.5         "></polygon>
			<polygon class="st0" points="85.6,91.9 82.5,95.6 88.2,93.7 93.4,95.1 89.1,90.9    "></polygon>
			<polygon class="st0" points="88.2,80.4 85.3,89.3 81.6,94.6 88.2,93.2 94.1,94.1 89.9,88.6    "></polygon>
		</g>
	</g>
	<g>
		<g>
			<polygon class="st0" points="104.9,84.5 98.2,91.7 106.7,91 114.5,92.6 113.5,91 118.8,91 111.7,83.9    "></polygon>
			<polygon class="st0" points="107,77.4 105.3,80.9 100.2,86.5 107,85.4 104.8,87.4 110.9,85.4 117.8,85.4 112.8,80.7 111,77.7         "></polygon>
			<polygon class="st0" points="106.7,76.1 103.6,79.7 109.3,77.9 114.5,79.2 110.2,75.1    "></polygon>
			<polygon class="st0" points="109.3,64.6 106.4,73.5 102.7,78.8 109.3,77.4 115.2,78.3 111,72.8    "></polygon>
		</g>
	</g>
	<g>
		<g>
			<polygon class="st0" points="358.2,75.6 351.6,82.8 360.1,82 367.8,83.7 366.8,82 372.1,82 365.1,75    "></polygon>
			<polygon class="st0" points="360.4,68.5 358.6,72 353.5,77.5 360.4,76.5 358.1,78.4 364.3,76.5 371.1,76.5 366.2,71.8      364.4,68.7    "></polygon>
			<polygon class="st0" points="360,67.1 356.9,70.8 362.7,69 367.8,70.3 363.6,66.1    "></polygon>
			<polygon class="st0" points="362.7,55.6 359.7,64.5 356,69.8 362.7,68.4 368.5,69.3 364.3,63.8    "></polygon>
		</g>
	</g>
	<g>
		<g>
			<polygon class="st0" points="256.4,21.8 249.7,29 258.2,28.2 266,29.9 265,28.2 270.2,28.2 263.2,21.2    "></polygon>
			<polygon class="st0" points="258.5,14.7 256.8,18.2 251.7,23.8 258.5,22.7 256.3,24.7 262.4,22.7 269.3,22.7 264.3,18 262.5,15         "></polygon>
			<polygon class="st0" points="258.1,13.4 255.1,17 260.8,15.2 266,16.5 261.7,12.4    "></polygon>
			<polygon class="st0" points="260.8,1.9 257.9,10.8 254.2,16 260.8,14.7 266.7,15.6 262.5,10.1    "></polygon>
		</g>
	</g>
</g>
</svg>