<svg xmlns="http://www.w3.org/2000/svg" xmlns:xlink="http://www.w3.org/1999/xlink" id="Layer_1" x="0px" y="0px" width="300px" height="80px" viewBox="0 0 300 80" xml:space="preserve">
<path fill="#FFFFFF" d="M273.755,15.846c-11.036,0.583-9.69,4.8-16.285,5.771c-6.595,0.971-5.249,6.028-11.171,6.01  c-3.008-0.009-8.575,1.128-13.325,2.25l-1.905-3.359l1.996,0.657l-2.475-4.185l-0.385-2.831l1.156,0.135l-3.679-10.057l-1.256,7.716  l-1.884,3.499l1.406-0.583l-0.509,1.48l-2.423,4.178l1.843-0.35l-2.588,6.994l-5.719,2.866l-1.512-2.185l-0.908-2.356l2.37,0.998  l-1.039-1.632l1.813,0.5l-3.194-6.016l-2.555-10.171l-1.44,9.379l-3.649,6.241l1.756-0.352l-1.154,1.484l2.598-0.885l-1.149,2.583  l-4.287,5.346h3.937l-4.238,5.577l-5.144-5.144l4.046,1.147l-6.282-10.654l-2.251-3.845l5.09,1.317l-2.261-2.208l3.441,0.523  l-7.149-9.291l-2.82-13.962l-5.004,15.141l-6.258,8.955l3.552-0.744l-2.035,2.429l4.643-1.485l-1.778,3.507l-8.594,9.436  l5.634-0.879l-3.389,3.693c-0.677-0.357-1.411-0.734-2.163-1.104l0.507,0.074l-3.099-8.375l1.843,0.35l-2.423-4.178l-0.509-1.48  l1.406,0.583l-1.884-3.499l-1.256-7.716l-3.679,10.057l1.156-0.135l-0.385,2.831l-2.475,4.185l1.996-0.657l-3.501,6.172  c-3.38,0.387-7.712,0.866-11.224,1.25l-2.647-2.647h7.712l-8.399-7.958l-2.252-3.845l5.09,1.317l-2.261-2.208l3.441,0.523  l-7.149-9.291l-2.82-13.962l-5.004,15.141l-6.258,8.955l3.552-0.744l-2.035,2.429l4.643-1.485l-1.778,3.507l-4.363,4.79  l-0.714-1.232l-0.509-1.48l1.406,0.583l-1.884-3.499l-1.256-7.716l-3.679,10.057l1.156-0.135l-0.385,2.831l-2.475,4.185l1.996-0.657  l-2.949,5.199l-5.884,1.34l-1.8-2.581l3.845,0.79l-5.864-8.474l-1.214-3.15l3.168,1.334l-1.389-2.181l2.424,0.668l-4.271-8.043  l-3.415-13.598l-1.925,12.539l-4.878,8.344l2.348-0.47l-1.543,1.983l3.395-1.156l-5.264,10.573h3.338L99.2,46.281l-6.345-12.119  l2.438,0.803l-2.916-4.93l-0.454-3.335l1.362,0.159L88.95,15.009l-1.48,9.091l-2.22,4.123l1.657-0.687l-0.6,1.744l-2.854,4.922  l2.171-0.413l-2.455,6.634l-7.042,0.583l-2.057-5.559l1.747,0.332l-2.297-3.961l-0.482-1.404l1.333,0.553l-1.787-3.318l-1.191-7.316  l-3.488,9.535l1.096-0.128l-0.345,2.534l-2.882-4.165l-1.214-3.15l3.168,1.334l-1.389-2.181l2.424,0.668l-4.271-8.043L61.078,3.141  l-1.925,12.539l-4.878,8.344l2.348-0.47l-1.543,1.983l3.474-1.183l-1.536,3.453l-5.732,7.147h5.263l-2.527,3.326l-5.958-1.431  l-4.251-7.494l2.351,0.774l-2.916-4.93l-0.454-3.335l1.362,0.159L39.82,10.175l-1.48,9.091l-2.22,4.123l1.657-0.687l-0.6,1.744  l-2.854,4.922l2.171-0.413l-1.118,3.021c-6.127-0.601-10.249-4.748-15.86-7.387C13.19,21.617,0,21.664,0,21.664V80h300V12.167  C300,12.167,284.791,15.262,273.755,15.846z M67.852,35.878l0.133-0.044l0.143,0.029l-0.128,0.226L67.852,35.878z"></path>
<g>
</g>
<g>
</g>
<g>
</g>
<g>
</g>
<g>
</g>
<g>
</g>
<g>
</g>
<g>
</g>
<g>
</g>
<g>
</g>
<g>
</g>
<g>
</g>
<g>
</g>
<g>
</g>
<g>
</g>
</svg>