<?xml version="1.0" encoding="UTF-8" standalone="no"?>
<svg
   xmlns:dc="http://purl.org/dc/elements/1.1/"
   xmlns:cc="http://creativecommons.org/ns#"
   xmlns:rdf="http://www.w3.org/1999/02/22-rdf-syntax-ns#"
   xmlns:svg="http://www.w3.org/2000/svg"
   xmlns="http://www.w3.org/2000/svg"
   xmlns:sodipodi="http://sodipodi.sourceforge.net/DTD/sodipodi-0.dtd"
   xmlns:inkscape="http://www.inkscape.org/namespaces/inkscape"
   version="1.1"
   id="svg2"
   xml:space="preserve"
   width="839.09729"
   height="540.74603"
   viewBox="0 0 839.09729 540.74603"
   sodipodi:docname="Fiets.svg"
   inkscape:version="1.0.2 (e86c870879, 2021-01-15)"><metadata
     id="metadata8"><rdf:RDF><cc:Work
         rdf:about=""><dc:format>image/svg+xml</dc:format><dc:type
           rdf:resource="http://purl.org/dc/dcmitype/StillImage" /><dc:title></dc:title></cc:Work></rdf:RDF></metadata><defs
     id="defs6" /><sodipodi:namedview
     pagecolor="#ffffff"
     bordercolor="#666666"
     borderopacity="1"
     objecttolerance="10"
     gridtolerance="10"
     guidetolerance="10"
     inkscape:pageopacity="0"
     inkscape:pageshadow="2"
     inkscape:window-width="1920"
     inkscape:window-height="1051"
     id="namedview4"
     showgrid="false"
     inkscape:zoom="0.416875"
     inkscape:cx="417.81201"
     inkscape:cy="-195.40597"
     inkscape:window-x="0"
     inkscape:window-y="-6"
     inkscape:window-maximized="1"
     inkscape:current-layer="g12" /><g
     id="g10"
     inkscape:groupmode="layer"
     inkscape:label="ink_ext_XXXXXX"
     transform="matrix(1.3333333,0,0,-1.3333333,-382.18799,700.54605)"><g
       id="g12"
       transform="scale(0.1)"><path
         d="m 4764.29,1269.1 c 0,-39 -296.2,-70.6 -661.57,-70.6 -365.38,0 -661.57,31.6 -661.57,70.6 0,39 296.19,70.7 661.57,70.7 365.37,0 661.57,-31.7 661.57,-70.7"
         style="fill:#b4b4b3;fill-opacity:1;fill-rule:nonzero;stroke:none"
         id="path16" /><path
         d="m 8584.89,1269.1 c 0,-39 -296.2,-70.6 -661.58,-70.6 -365.38,0 -661.57,31.6 -661.57,70.6 0,39 296.19,70.7 661.57,70.7 365.38,0 661.58,-31.7 661.58,-70.7"
         style="fill:#b4b4b3;fill-opacity:1;fill-rule:nonzero;stroke:none"
         id="path18" /><path
         d="m 4102.72,3637.34 c -626.99,0 -1137.08,-510.1 -1137.08,-1137.09 0,-626.95 510.09,-1137.05 1137.08,-1137.05 627,0 1137.08,510.1 1137.08,1137.05 0,626.99 -510.08,1137.09 -1137.08,1137.09 z m 0,-2373.44 c -681.72,0 -1236.31,554.6 -1236.31,1236.35 0,681.71 554.59,1236.33 1236.31,1236.33 681.72,0 1236.32,-554.62 1236.32,-1236.33 0,-681.75 -554.6,-1236.35 -1236.32,-1236.35 v 0"
         style="fill:#32334a;fill-opacity:1;fill-rule:nonzero;stroke:none"
         id="path20" /><path
         d="m 4102.72,3561.89 c -585.38,0 -1061.62,-476.25 -1061.62,-1061.64 0,-585.35 476.24,-1061.65 1061.62,-1061.65 585.39,0 1061.62,476.3 1061.62,1061.65 0,585.39 -476.23,1061.64 -1061.62,1061.64 z m 0,-2172.89 c -612.73,0 -1111.24,498.5 -1111.24,1111.25 0,612.73 498.51,1111.25 1111.24,1111.25 612.74,0 1111.24,-498.52 1111.24,-1111.25 C 5213.96,1887.5 4715.46,1389 4102.72,1389 v 0"
         style="fill:#d75434;fill-opacity:1;fill-rule:nonzero;stroke:none"
         id="path22" /><path
         d="m 7923.31,3637.34 c -626.98,0 -1137.07,-510.1 -1137.07,-1137.09 0,-626.95 510.09,-1137.05 1137.07,-1137.05 627,0 1137.09,510.1 1137.09,1137.05 0,626.99 -510.09,1137.09 -1137.09,1137.09 z m 0,-2373.44 C 7241.6,1263.9 6687,1818.5 6687,2500.25 c 0,681.71 554.6,1236.33 1236.31,1236.33 681.72,0 1236.33,-554.62 1236.33,-1236.33 0,-681.75 -554.61,-1236.35 -1236.33,-1236.35 v 0"
         style="fill:#32334a;fill-opacity:1;fill-rule:nonzero;stroke:none"
         id="path24" /><path
         d="m 7923.31,3561.89 c -585.38,0 -1061.62,-476.25 -1061.62,-1061.64 0,-585.35 476.24,-1061.65 1061.62,-1061.65 585.4,0 1061.63,476.3 1061.63,1061.65 0,585.39 -476.23,1061.64 -1061.63,1061.64 z m 0,-2172.89 c -612.73,0 -1111.23,498.5 -1111.23,1111.25 0,612.73 498.5,1111.25 1111.23,1111.25 612.73,0 1111.25,-498.52 1111.25,-1111.25 C 9034.56,1887.5 8536.04,1389 7923.31,1389 v 0"
         style="fill:#d75434;fill-opacity:1;fill-rule:nonzero;stroke:none"
         id="path26" /><path
         d="m 5744.14,2480.03 -373.98,1667.28 1778.19,195.61 65.45,-284.94 z M 5257.78,4043.73 5622.47,2417.89 4221.5,2555.1 Z M 7969.5,2547.61 c -305.78,298.14 -453.11,791.85 -461.75,821.55 l -344.87,1501.68 h 338.69 c 36.53,0 66.15,29.63 66.15,66.17 0,36.53 -29.62,66.15 -66.15,66.15 h -421.76 c -20.14,0 -39.2,-9.17 -51.75,-24.93 -12.56,-15.78 -17.23,-36.37 -12.73,-56.02 l 103.21,-449.44 -1776.39,-195.44 -155.45,693.09 c -8.02,35.65 -43.47,58.07 -79.03,50.07 -35.67,-8 -58.08,-43.36 -50.09,-79.03 l 161.79,-721.3 -1170.95,-1682.11 c -0.7,-1 -1.1,-2.1 -1.73,-3.11 -1.19,-1.93 -2.29,-3.87 -3.3,-5.93 -0.98,-2.01 -1.82,-4.04 -2.57,-6.11 -0.7,-1.9 -1.32,-3.82 -1.85,-5.81 -0.63,-2.41 -1.08,-4.8 -1.44,-7.23 -0.16,-1.08 -0.53,-2.08 -0.64,-3.18 -0.08,-0.83 0.07,-1.64 0,-2.49 -0.13,-2.41 -0.1,-4.8 0.03,-7.23 0.09,-2.04 0.21,-4.03 0.48,-6.01 0.31,-2.17 0.79,-4.25 1.31,-6.36 0.52,-2.06 1.02,-4.11 1.72,-6.12 0.71,-2.02 1.59,-3.92 2.48,-5.89 0.89,-1.9 1.76,-3.79 2.81,-5.59 1.09,-1.85 2.35,-3.59 3.61,-5.36 1.26,-1.73 2.51,-3.43 3.92,-5.04 1.36,-1.53 2.83,-2.93 4.33,-4.34 1.74,-1.64 3.5,-3.19 5.43,-4.64 0.67,-0.53 1.21,-1.17 1.92,-1.66 1.26,-0.86 2.58,-1.49 3.87,-2.27 1.19,-0.73 2.36,-1.48 3.62,-2.12 3.46,-1.8 7.01,-3.36 10.63,-4.48 0.03,0 0.06,-0.02 0.1,-0.03 3.92,-1.22 7.91,-1.95 11.93,-2.41 0.4,-0.04 0.78,-0.19 1.2,-0.23 l 1604.31,-157.12 c 2.01,-0.22 3.99,-0.28 5.97,-0.29 0.14,-0.02 0.27,-0.06 0.41,-0.06 0.04,0 0.07,0.01 0.11,0.01 0.01,0 0.02,0 0.04,0 4.38,0 8.66,0.47 12.82,1.32 0.35,0.06 0.67,0.16 0.99,0.24 0.19,0.05 0.39,0.01 0.58,0.07 1.11,0.23 2.1,0.76 3.2,1.04 2.48,0.72 4.99,1.36 7.36,2.34 0.52,0.22 1.03,0.41 1.56,0.63 1.35,0.62 2.57,1.41 3.87,2.11 2.01,1.03 3.98,2.07 5.85,3.3 0.6,0.38 1.23,0.67 1.81,1.1 1.1,0.76 2,1.7 3.05,2.55 1.73,1.39 3.41,2.81 4.99,4.35 0.7,0.68 1.47,1.23 2.14,1.94 0.02,0.03 0.07,0.06 0.1,0.09 l 1494.12,1604.23 129.63,-564.47 c 0.25,-1.04 0.5,-2.05 0.79,-3.07 6.27,-22.34 157.56,-550.74 497.16,-881.84 12.86,-12.54 29.53,-18.78 46.17,-18.78 17.21,0 34.41,6.67 47.37,19.97 25.51,26.16 24.98,68.04 -1.18,93.54"
         style="fill:#7ed3bf;fill-opacity:1;fill-rule:nonzero;stroke:none"
         id="path28" /><path
         d="m 7757.68,4220.07 c -65.45,0 -114.2,6.08 -126.88,7.84 -45.25,6.26 -76.85,48.04 -70.57,93.28 6.27,45.22 48.07,76.77 93.27,70.54 75.65,-10.28 294.51,-17.55 396.14,71.22 37.94,33.12 55.6,76.04 55.6,135.06 0,69.63 -20.74,123.24 -63.4,163.86 -106.47,101.4 -310.64,92.67 -312.77,92.55 -1.33,-0.06 -2.88,-0.12 -4.23,-0.12 h -223.27 c -45.69,0 -82.71,37.05 -82.71,82.71 0,45.67 37.02,82.69 82.71,82.69 h 221.41 c 29.84,1.23 280.08,6.82 432.27,-137.43 76.56,-72.57 115.39,-168.21 115.39,-284.26 0,-105.92 -38.92,-195.82 -112.57,-259.96 -113.13,-98.51 -283.42,-117.98 -400.39,-117.98 v 0"
         style="fill:#d75434;fill-opacity:1;fill-rule:nonzero;stroke:none"
         id="path30" /><path
         d="m 5558.19,4923.31 h -556.85 c -217.71,0 -351.55,193.4 -357.15,201.62 -25.65,37.78 -15.83,89.21 21.97,114.87 37.67,25.6 88.93,15.88 114.66,-21.66 1.79,-2.55 91.95,-129.43 220.52,-129.43 h 556.85 c 45.67,0 82.69,-37.05 82.69,-82.71 0,-45.67 -37.02,-82.69 -82.69,-82.69 v 0"
         style="fill:#d75434;fill-opacity:1;fill-rule:nonzero;stroke:none"
         id="path32" /><path
         d="m 5805.95,2496.46 131.11,427.54 -94.88,29.08 -131.12,-427.56 c -1.36,0.03 -2.67,0.19 -4.02,0.19 -100.85,0 -182.61,-81.75 -182.61,-182.57 0,-64.36 33.37,-120.83 83.68,-153.35 l -131.12,-427.49 94.88,-29.1 131.12,427.53 c 1.37,-0.01 2.68,-0.2 4.05,-0.2 100.84,0 182.58,81.75 182.58,182.61 0,64.35 -33.37,120.82 -83.67,153.32"
         style="fill:#32334a;fill-opacity:1;fill-rule:nonzero;stroke:none"
         id="path34" /><path
         d="m 6054.36,2880.66 h -329.47 c -31.97,0 -57.89,25.91 -57.89,57.89 0,31.96 25.92,57.89 57.89,57.89 h 329.47 c 31.98,0 57.89,-25.93 57.89,-57.89 0,-31.98 -25.91,-57.89 -57.89,-57.89 v 0"
         style="fill:#d75434;fill-opacity:1;fill-rule:nonzero;stroke:none"
         id="path36" /><path
         d="m 5689.17,1689.8 h -329.45 c -31.97,0 -57.89,25.9 -57.89,57.9 0,32 25.92,57.9 57.89,57.9 h 329.45 c 31.97,0 57.9,-25.9 57.9,-57.9 0,-32 -25.93,-57.9 -57.9,-57.9 v 0"
         style="fill:#d75434;fill-opacity:1;fill-rule:nonzero;stroke:none"
         id="path38" /><path
         d="m 5707.04,2665.65 c -177.83,0 -322.52,-144.68 -322.52,-322.51 0,-177.85 144.69,-322.52 322.52,-322.52 177.83,0 322.52,144.67 322.52,322.52 0,177.83 -144.69,322.51 -322.52,322.51 z m 0,-694.65 c -205.19,0 -372.14,166.92 -372.14,372.14 0,205.19 166.95,372.12 372.14,372.12 205.19,0 372.13,-166.93 372.13,-372.12 0,-205.22 -166.94,-372.14 -372.13,-372.14 v 0"
         style="fill:#d75434;fill-opacity:1;fill-rule:nonzero;stroke:none"
         id="path40" /><path
         d="m 4131.66,2658.03 c -13.64,0 -24.74,11.05 -24.8,24.7 -0.07,13.71 10.98,24.86 24.69,24.92 l 1575.38,7.61 c 0.03,0 0.08,0 0.11,0 13.65,0 24.75,-11.04 24.81,-24.69 0.06,-13.71 -10.98,-24.85 -24.69,-24.92 l -1575.38,-7.62 c -0.03,0 -0.09,0 -0.12,0 v 0"
         style="fill:#d75434;fill-opacity:1;fill-rule:nonzero;stroke:none"
         id="path42" /><path
         d="m 5605.2,1986.2 c -1.89,0 -3.81,0.2 -5.72,0.7 l -1517.8,358.81 c -13.35,3.17 -21.6,16.54 -18.45,29.87 3.15,13.33 16.59,21.59 29.85,18.43 l 1517.81,-358.86 c 13.34,-3.16 21.59,-16.54 18.45,-29.87 -2.7,-11.38 -12.89,-19.08 -24.14,-19.08 v 0"
         style="fill:#d75434;fill-opacity:1;fill-rule:nonzero;stroke:none"
         id="path44" /><path
         d="m 4303.04,2525.71 c 0,-100.85 -81.75,-182.57 -182.58,-182.57 -100.86,0 -182.62,81.72 -182.62,182.57 0,100.86 81.76,182.61 182.62,182.61 100.83,0 182.58,-81.75 182.58,-182.61"
         style="fill:#32334a;fill-opacity:1;fill-rule:nonzero;stroke:none"
         id="path46" /></g></g></svg>
