<?xml version="1.0" encoding="utf-8"?>
<svg height="512pt" viewBox="-61 0 512 512" width="512pt" xmlns="http://www.w3.org/2000/svg">
  <path d="M 374.055 376.995 C 374.055 423.194 356.653 465.194 328.153 496.995 L 59.957 496.995 C 31.457 465.194 14.055 423.194 14.055 376.995 C 14.055 277.694 94.754 195.995 194.055 195.995 C 228.555 195.995 260.653 206.597 287.953 223.393 C 285.555 229.097 284.055 235.393 284.055 241.995 C 284.055 266.893 304.153 286.995 329.055 286.995 C 335.653 286.995 341.953 285.495 347.656 283.097 C 364.453 310.393 374.055 342.495 374.055 376.995 Z M 374.055 376.995" fill="#ffd400" transform="matrix(-0.999944, -0.010573, 0.010573, -0.999944, 384.435806, 695.022288)"/>
  <path d="M 194.06 376.043 C 194.06 422.243 176.658 464.243 148.158 496.043 L 14.06 496.043 L 14.06 195.043 C 48.56 195.043 80.658 205.645 107.958 222.442 C 105.56 228.145 104.06 234.442 104.06 241.043 C 104.06 265.942 124.158 286.043 149.06 286.043 C 155.658 286.043 161.958 284.543 167.661 282.145 C 184.458 309.442 194.06 341.543 194.06 376.043 Z M 194.06 376.043" fill="#fdbf00" transform="matrix(-0.999944, -0.010573, 0.010573, -0.999944, 204.460901, 692.166869)"/>
  <path d="M 360.254 275.296 C 356.356 268.694 348.254 266.296 341.356 269.296 C 337.457 271.093 333.254 271.995 329.055 271.995 C 312.555 271.995 299.055 258.495 299.055 241.995 C 299.055 237.796 299.957 233.593 301.754 229.694 C 304.754 222.796 302.356 214.694 295.754 210.796 C 265.453 191.893 230.055 180.995 194.055 180.995 C 107.356 180.995 30.254 239.593 6.555 324.495 C 6.254 325.093 5.953 325.995 5.953 326.597 C 1.457 342.796 -0.945 359.593 -0.945 376.995 C -0.945 392.593 1.457 408.194 5.356 423.194 C 5.055 425.893 5.953 428.593 7.457 431.296 C 15.555 458.893 29.055 484.995 48.856 506.893 C 51.555 510.194 55.754 511.995 59.957 511.995 L 328.153 511.995 C 332.356 511.995 336.555 510.194 339.254 506.893 C 365.953 477.495 383.055 432.796 382.754 423.194 C 386.656 408.194 389.055 392.593 389.055 376.995 C 389.055 340.995 379.153 305.597 360.254 275.296 L 360.254 275.296 Z M 298.754 293.593 C 307.754 298.694 317.953 301.995 329.055 301.995 C 332.953 301.995 336.856 301.694 340.453 300.796 C 344.656 309.194 347.953 317.593 350.953 326.296 L 321.254 355.694 L 278.957 313.393 L 298.754 293.593 Z M 151.754 313.393 L 194.055 270.796 L 236.356 313.393 L 194.055 355.694 L 151.754 313.393 Z M 172.754 376.995 L 130.453 419.296 L 87.856 376.995 L 130.453 334.694 L 172.754 376.995 Z M 257.656 334.694 L 300.254 376.995 L 257.656 419.296 L 215.356 376.995 L 257.656 334.694 Z M 244.754 219.093 C 253.453 222.097 261.856 226.393 270.254 230.597 C 269.356 234.194 269.055 238.097 269.055 241.995 C 269.055 253.097 272.356 263.296 277.457 272.296 L 257.656 292.093 L 215.356 249.796 L 244.754 219.093 Z M 194.055 210.995 C 199.153 210.995 204.555 211.296 209.656 211.893 L 194.055 227.495 L 178.453 211.893 C 183.555 211.296 188.656 210.995 194.055 210.995 Z M 143.356 219.093 L 172.754 249.796 L 130.453 292.093 L 88.453 250.393 C 104.656 236.893 122.953 225.694 143.356 219.093 Z M 67.457 271.393 L 109.156 313.393 L 66.856 355.694 L 37.156 326.296 C 43.754 305.893 53.957 287.593 67.457 271.393 Z M 29.055 376.995 C 29.055 371.597 29.356 366.495 29.957 361.393 L 45.555 376.995 L 30.254 392.296 C 29.957 387.194 29.055 382.093 29.055 376.995 Z M 67.754 481.995 L 66.856 481.995 C 53.356 465.796 43.754 447.194 37.457 427.694 L 66.856 398.296 L 109.153 440.597 L 67.754 481.995 Z M 110.356 481.995 L 130.453 461.893 L 150.555 481.995 L 110.356 481.995 Z M 195.254 481.995 L 192.856 481.995 L 151.754 440.597 L 194.055 398.296 L 236.356 440.597 L 195.254 481.995 Z M 237.555 481.995 L 257.653 461.893 L 277.754 481.995 L 237.555 481.995 Z M 321.254 481.995 L 320.356 481.995 L 278.957 440.597 L 321.254 398.296 L 350.653 427.694 C 344.356 447.194 334.754 465.796 321.254 481.995 Z M 357.856 392.296 L 342.555 376.995 L 358.153 361.393 C 358.754 366.495 359.055 371.893 359.055 376.995 C 359.055 382.093 358.153 387.194 357.856 392.296 L 357.856 392.296 Z M 357.856 392.296" fill="#ff9f00" transform="matrix(-0.999944, -0.010573, 0.010573, -0.999944, 384.435805, 695.022288)"/>
  <path d="M 165.26 274.265 C 161.361 267.663 153.26 265.265 146.361 268.265 C 142.463 270.062 138.26 270.964 134.06 270.964 C 117.56 270.964 104.06 257.464 104.06 240.964 C 104.06 236.765 104.963 232.562 106.76 228.663 C 109.76 221.765 107.361 213.663 100.76 209.765 C 70.459 190.863 35.06 179.964 -0.94 179.964 L -0.94 209.964 C 4.158 209.964 9.56 210.265 14.662 210.863 L -0.94 226.464 L -0.94 269.765 L 41.361 312.363 L -0.94 354.663 L -0.94 397.261 L 41.361 439.562 L 0.26 480.964 L -0.94 480.964 L -0.94 510.964 L 133.158 510.964 C 137.361 510.964 141.56 509.163 144.26 505.863 C 170.959 476.464 188.06 431.765 187.76 422.163 C 191.662 407.163 194.06 391.562 194.06 375.964 C 194.06 339.964 184.158 304.566 165.26 274.265 L 165.26 274.265 Z M 103.76 292.562 C 112.76 297.663 122.959 300.964 134.06 300.964 C 137.959 300.964 141.861 300.663 145.459 299.765 C 149.662 308.163 152.959 316.562 155.959 325.265 L 126.26 354.663 L 83.963 312.363 L 103.76 292.562 Z M 20.361 248.765 L 49.76 218.062 C 58.459 221.066 66.861 225.363 75.26 229.566 C 74.361 233.163 74.06 237.066 74.06 240.964 C 74.06 252.066 77.361 262.265 82.463 271.265 L 62.662 291.062 L 20.361 248.765 Z M 20.361 375.964 L 62.662 333.663 L 105.26 375.964 L 62.662 418.265 L 20.361 375.964 Z M 42.56 480.964 L 62.658 460.863 L 82.76 480.964 L 42.56 480.964 Z M 126.26 480.964 L 125.361 480.964 L 83.963 439.566 L 126.26 397.265 L 155.658 426.663 C 149.361 446.163 139.76 464.765 126.26 480.964 Z M 162.861 391.265 L 147.56 375.964 L 163.158 360.363 C 163.76 365.464 164.06 370.863 164.06 375.964 C 164.06 381.062 163.158 386.163 162.861 391.265 Z M 162.861 391.265" fill="#ff7816" transform="matrix(-0.999944, -0.010573, 0.010573, -0.999944, 189.462154, 691.92959)"/>
  <path d="M 390.404 9.309 C 388.001 3.61 382.603 0.008 376.603 0.008 L 16.603 0.008 C 10.603 0.008 5.204 3.61 2.802 9.309 C 0.404 15.008 1.603 21.309 6.103 25.508 L 186.103 206.508 C 188.802 209.508 192.704 211.008 196.603 211.008 C 200.501 211.008 204.404 209.508 207.103 206.508 L 387.103 25.508 C 391.603 21.309 392.802 15.008 390.404 9.309 L 390.404 9.309 Z M 390.404 9.309" transform="matrix(-0.999944, -0.010573, 0.010573, -0.999944, 392.079529, 213.088706)" style="fill: rgb(3, 218, 198);"/>
  <path d="M 192.097 24.478 L 12.097 205.478 C 9.398 208.478 5.496 209.978 1.597 209.978 L 1.597 -1.022 L 181.597 -1.022 C 187.597 -1.022 192.996 2.579 195.398 8.278 C 197.796 13.978 196.597 20.278 192.097 24.478 Z M 192.097 24.478" transform="matrix(-0.999944, -0.010573, 0.010573, -0.999944, 197.095058, 209.997932)" style="fill: rgb(2, 182, 176);"/>
</svg>