<svg height="512pt" viewBox="-61 0 512 512" width="512pt" xmlns="http://www.w3.org/2000/svg"><path d="m375.011719 196c0 46.199219-17.402344 88.199219-45.902344 120h-268.195313c-28.5-31.800781-45.902343-73.800781-45.902343-120 0-99.300781 80.699219-181 180-181 34.5 0 66.597656 10.601562 93.898437 27.398438-2.398437 5.703124-3.898437 12-3.898437 18.601562 0 24.898438 20.097656 45 45 45 6.597656 0 12.898437-1.5 18.601562-3.898438 16.796875 27.296876 26.398438 59.398438 26.398438 93.898438zm0 0" fill="#ffd400"/><path d="m375.011719 196c0 46.199219-17.402344 88.199219-45.902344 120h-134.097656v-301c34.5 0 66.597656 10.601562 93.898437 27.398438-2.398437 5.703124-3.898437 12-3.898437 18.601562 0 24.898438 20.097656 45 45 45 6.597656 0 12.898437-1.5 18.601562-3.898438 16.796875 27.296876 26.398438 59.398438 26.398438 93.898438zm0 0" fill="#fdbf00"/><path d="m361.210938 94.300781c-3.898438-6.601562-12-9-18.898438-6-3.898438 1.796875-8.101562 2.699219-12.300781 2.699219-16.5 0-30-13.5-30-30 0-4.199219.902343-8.402344 2.699219-12.300781 3-6.898438.601562-15-6-18.898438-30.300782-18.902343-65.699219-29.800781-101.699219-29.800781-86.699219 0-163.800781 58.597656-187.5 143.5-.300781.597656-.601563 1.5-.601563 2.101562-4.496094 16.199219-6.8984372 32.996094-6.8984372 50.398438 0 15.597656 2.4023432 31.199219 6.3007812 46.199219-.300781 2.699219.597656 5.398437 2.101562 8.101562 8.097657 27.597657 21.597657 53.699219 41.398438 75.597657 2.699219 3.300781 6.898438 5.101562 11.101562 5.101562h268.195313c4.203125 0 8.402344-1.800781 11.101563-5.101562 26.699218-29.398438 43.800781-74.097657 43.5-83.699219 3.902343-15 6.300781-30.601563 6.300781-46.199219 0-36-9.902344-71.398438-28.800781-101.699219zm-61.5 18.296875c9 5.101563 19.199218 8.402344 30.300781 8.402344 3.898437 0 7.800781-.300781 11.398437-1.199219 4.203125 8.398438 7.5 16.796875 10.5 25.5l-29.699218 29.398438-42.296876-42.300781zm-147 19.800782 42.300781-42.597657 42.300781 42.597657-42.300781 42.300781zm21 63.601562-42.300782 42.300781-42.597656-42.300781 42.597656-42.300781zm84.902343-42.300781 42.597657 42.300781-42.597657 42.300781-42.300781-42.300781zm-12.902343-115.601563c8.699218 3.003906 17.101562 7.300782 25.5 11.503906-.898438 3.597657-1.199219 7.5-1.199219 11.398438 0 11.101562 3.300781 21.300781 8.402343 30.300781l-19.800781 19.796875-42.300781-42.296875zm-50.699219-8.097656c5.097656 0 10.5.300781 15.601562.898438l-15.601562 15.601562-15.601563-15.601562c5.101563-.597657 10.203125-.898438 15.601563-.898438zm-50.699219 8.097656 29.398438 30.703125-42.300782 42.296875-42-41.699218c16.203125-13.5 34.5-24.699219 54.902344-31.300782zm-75.898438 52.300782 41.699219 42-42.300781 42.300781-29.699219-29.398438c6.597657-20.402343 16.800781-38.703125 30.300781-54.902343zm-38.402343 105.601562c0-5.398438.300781-10.5.902343-15.601562l15.597657 15.601562-15.300781 15.300781c-.296876-5.101562-1.199219-10.203125-1.199219-15.300781zm38.699219 105h-.898438c-13.5-16.199219-23.101562-34.800781-29.398438-54.300781l29.398438-29.398438 42.296875 42.300781zm42.601562 0 20.097656-20.101562 20.101563 20.101562zm84.898438 0h-2.398438l-41.101562-41.398438 42.300781-42.300781 42.300781 42.300781zm42.300781 0 20.097656-20.101562 20.101563 20.101562zm83.699219 0h-.898438l-41.398438-41.398438 42.296876-42.300781 29.398437 29.398438c-6.296875 19.5-15.898437 38.101562-29.398437 54.300781zm36.601562-89.699219-15.300781-15.300781 15.597656-15.601562c.601563 5.101562.902344 10.5.902344 15.601562 0 5.097656-.902344 10.199219-1.199219 15.300781zm0 0" fill="#ff9f00"/><path d="m361.210938 94.300781c-3.898438-6.601562-12-9-18.898438-6-3.898438 1.796875-8.101562 2.699219-12.300781 2.699219-16.5 0-30-13.5-30-30 0-4.199219.902343-8.402344 2.699219-12.300781 3-6.898438.601562-15-6-18.898438-30.300782-18.902343-65.699219-29.800781-101.699219-29.800781v30c5.097656 0 10.5.300781 15.601562.898438l-15.601562 15.601562v43.300781l42.300781 42.597657-42.300781 42.300781v42.597656l42.300781 42.300781-41.101562 41.402344h-1.199219v30h134.097656c4.203125 0 8.402344-1.800781 11.101563-5.101562 26.699218-29.398438 43.800781-74.097657 43.5-83.699219 3.902343-15 6.300781-30.601563 6.300781-46.199219 0-36-9.902344-71.398438-28.800781-101.699219zm-61.5 18.296875c9 5.101563 19.199218 8.402344 30.300781 8.402344 3.898437 0 7.800781-.300781 11.398437-1.199219 4.203125 8.398438 7.5 16.796875 10.5 25.5l-29.699218 29.398438-42.296876-42.300781zm-83.398438-43.796875 29.398438-30.703125c8.699218 3.003906 17.101562 7.300782 25.5 11.503906-.898438 3.597657-1.199219 7.5-1.199219 11.398438 0 11.101562 3.300781 21.300781 8.402343 30.300781l-19.800781 19.796875zm0 127.199219 42.300781-42.300781 42.597657 42.300781-42.597657 42.300781zm22.199219 105 20.097656-20.101562 20.101563 20.101562zm83.699219 0h-.898438l-41.398438-41.398438 42.296876-42.300781 29.398437 29.398438c-6.296875 19.5-15.898437 38.101562-29.398437 54.300781zm36.601562-89.699219-15.300781-15.300781 15.597656-15.601562c.601563 5.101562.902344 10.5.902344 15.601562 0 5.097656-.902344 10.199219-1.199219 15.300781zm0 0" fill="#ff7816"/><path d="m388.8125 310.300781c-2.402344-5.699219-7.800781-9.300781-13.800781-9.300781h-360c-6 0-11.398438 3.601562-13.800781 9.300781-2.398438 5.699219-1.1992192 12 3.300781 16.199219l180 181c2.699219 3 6.601562 4.5 10.5 4.5 3.898437 0 7.800781-1.5 10.5-4.5l180-181c4.5-4.199219 5.699219-10.5 3.300781-16.199219zm0 0" fill="#ececf1"/><path d="m385.511719 326.5-180 181c-2.699219 3-6.601563 4.5-10.5 4.5v-211h180c6 0 11.398437 3.601562 13.800781 9.300781 2.398438 5.699219 1.199219 12-3.300781 16.199219zm0 0" fill="#d1d6f2"/></svg>